/* XPM */
static char *result[] = {
/* columns rows colors chars-per-pixel */
"64 64 136 2 ",
"   c #62622E",
".  c #595950",
"X  c #9F9F00",
"o  c #AEAE0F",
"O  c #B5B500",
"+  c #BBBB00",
"@  c #B6B60F",
"#  c #BDBD0C",
"$  c #BEBE1A",
"%  c #A9A926",
"&  c #BDBD23",
"*  c #B6B62B",
"=  c #BEBE28",
"-  c #A4A432",
";  c #A4A43E",
":  c #B4B43D",
">  c #BABA3B",
",  c #C4C401",
"<  c #CCCC01",
"1  c #C6C609",
"2  c #C8C80F",
"3  c #D4D400",
"4  c #DCDC01",
"5  c #D3D30C",
"6  c #DDDC0D",
"7  c #C1C110",
"8  c #CCCC13",
"9  c #C3C31D",
"0  c #CDCD1E",
"q  c #D4D412",
"w  c #DBDB14",
"e  c #D5D51C",
"r  c #DADA1C",
"t  c #E4E400",
"y  c #EBEB00",
"u  c #E2E20B",
"i  c #EDEE0B",
"p  c #F0EF00",
"a  c #F4F401",
"s  c #F8F700",
"d  c #FCFC00",
"f  c #F5F509",
"g  c #FDFD0D",
"h  c #E3E312",
"j  c #EBEB14",
"k  c #E4E41B",
"l  c #EDED1A",
"z  c #F5F515",
"x  c #FBFB16",
"c  c #F3F31B",
"v  c #FDFD1C",
"b  c #C0C025",
"n  c #CECE23",
"m  c #CBCA2A",
"M  c #D5D523",
"N  c #DEDE22",
"B  c #D2D22A",
"V  c #CECE32",
"C  c #D5D532",
"Z  c #D4D43E",
"A  c #DFDF3B",
"S  c #E5E527",
"D  c #E9E927",
"F  c #E4E429",
"G  c #EBEB2A",
"H  c #F6F620",
"J  c #FCFC21",
"K  c #E3E336",
"L  c #E7E739",
"P  c #E9E93B",
"I  c #A3A346",
"U  c #A6A64B",
"Y  c #AFAF4F",
"T  c #B4B442",
"R  c #B1B14C",
"E  c #AEAE53",
"W  c #A4A45B",
"Q  c #AAAA5C",
"!  c #B2B251",
"~  c #9C9C74",
"^  c #93937C",
"/  c #9D9D7D",
"(  c #A6A664",
")  c #ABAB63",
"_  c #A1A16C",
"`  c #B2B262",
"'  c #A4A473",
"]  c #A8A872",
"[  c #A4A47F",
"{  c #B0AF76",
"}  c #636395",
"|  c #71719D",
" . c #7C7CA2",
".. c #8F8F82",
"X. c #8C8C89",
"o. c #9C9C82",
"O. c #95958D",
"+. c #9B9B8C",
"@. c #8B8B94",
"#. c #85859C",
"$. c #8A8A9D",
"%. c #949395",
"&. c #9A9A96",
"*. c #94949D",
"=. c #A1A181",
"-. c #ABAB88",
";. c #8585A6",
":. c #8C8CA3",
">. c #8787AF",
",. c #8C8CAA",
"<. c #9393A4",
"1. c #9292AC",
"2. c #9A9AAF",
"3. c #8F8FB8",
"4. c #9393B2",
"5. c #9B9BB6",
"6. c #9696B9",
"7. c #9B9BBC",
"8. c #A2A2B5",
"9. c #A7A7B9",
"0. c #9D9DC1",
"q. c #A3A3C5",
"w. c #A5A5C9",
"e. c #AAAACD",
"r. c #ADADD2",
"t. c #B2B2D4",
"y. c #BABAD2",
"u. c #B6B6D9",
"i. c #BABADB",
"p. c #BFBFE1",
"a. c #C1C1DE",
"s. c #CDCDDF",
"d. c #C3C3E1",
"f. c #CBCBE3",
"g. c #D0D0E7",
"h. c None",
/* pixels */
"h.h.h.h.h.h.h.h.h.h.h.h.h.h.h.h.h.h.h.h.h.h.h.h.h.h.h.h.h.h.h.h.h.h.h.h.h.h.h.h.h.h.h.h.h.h.h.h.h.h.h.h.h.h.h.h.h.h.h.h.q.#.8.s.",
"h.h.h.h.h.h.h.h.h.h.h.h.h.h.h.h.h.h.h.h.h.h.h.h.h.h.h.h.h.h.h.h.h.h.h.h.h.h.h.h.h.h.h.h.h.h.h.h.h.h.h.h.h.h.h.h.h.h.u.<.> <   e.",
"h.h.h.h.h.h.h.h.h.h.h.h.h.h.h.h.h.h.h.h.h.h.h.h.h.h.h.h.h.h.h.h.h.h.h.h.h.h.h.h.h.h.h.h.h.h.h.h.h.h.h.h.h.h.h.h.h.8.' 3 d + 2.h.",
"h.h.h.h.h.h.h.h.h.h.h.h.h.h.h.h.h.h.h.h.h.h.h.h.h.h.h.h.h.h.h.h.h.h.h.h.h.h.h.h.h.h.h.h.h.h.h.h.h.h.h.h.h.h.h.i.<.9 t f O 1.h.h.",
"h.h.h.h.h.h.h.h.h.h.h.h.h.h.h.h.h.h.h.h.h.h.h.h.h.h.h.h.h.h.h.h.h.h.h.h.h.h.h.h.h.h.h.h.h.h.h.h.h.h.h.h.h.h.q.[ 3 h y O 4.h.h.h.",
"h.h.h.h.h.h.h.h.h.h.h.h.h.h.h.h.h.h.h.h.h.h.h.h.h.h.h.h.h.h.h.h.h.h.h.h.h.h.h.h.h.h.h.h.h.h.h.h.h.h.h.h.h.1.> 4 C y @ 4.h.h.h.h.",
"h.h.h.h.h.h.h.h.h.h.h.h.h.h.h.h.h.h.h.h.h.h.h.h.h.h.h.h.h.h.h.h.h.h.h.h.h.h.h.h.h.h.h.h.h.h.h.h.h.h.h.e.+.3 t V y * 4.h.h.h.h.h.",
"h.h.h.h.h.h.h.h.h.h.h.h.h.h.h.h.h.h.h.h.h.h.h.h.h.h.h.h.h.h.h.h.h.h.h.h.h.h.h.h.h.h.h.h.h.h.h.h.h.h.4.R t r m y : 6.h.h.h.h.h.h.",
"h.h.h.h.h.h.h.h.h.h.h.h.h.h.h.h.h.h.h.h.h.h.h.h.h.h.h.h.h.h.h.h.h.h.h.h.h.h.h.h.h.h.h.h.h.h.h.h.t.&.< t 9 n y Y 6.h.h.h.h.h.h.h.",
"h.h.h.h.h.h.h.h.h.h.h.h.h.h.h.h.h.h.h.h.h.h.h.h.h.h.h.h.h.h.h.h.h.h.h.h.h.h.h.h.h.h.h.h.h.h.h.6.) 4 w 7 e y E 7.h.h.h.h.h.h.h.h.",
"h.h.h.h.h.h.h.h.h.h.h.h.h.h.h.h.h.h.h.h.h.h.h.h.h.h.h.h.h.h.h.h.h.h.h.h.h.h.h.h.h.h.h.h.h.i.<., t e , M y Q 0.h.h.h.h.h.h.h.h.h.",
"h.h.h.h.h.h.h.h.h.h.h.h.h.h.h.h.h.h.h.h.h.h.h.h.h.h.h.h.h.h.h.h.h.h.h.h.h.h.h.h.h.h.h.h.7.] 4 4 8 , r t ( 0.h.h.h.h.h.h.h.h.h.h.",
"h.h.h.h.h.h.h.h.h.h.h.h.h.h.h.h.h.h.h.h.h.h.h.h.h.h.h.h.h.h.h.h.h.h.h.h.h.h.h.h.h.h.d.<.& y e , 1 e y _ w.h.h.h.h.h.h.h.h.h.h.h.",
"h.h.h.h.h.h.h.h.h.h.h.h.h.h.h.h.h.h.h.h.h.h.h.h.h.h.h.h.h.h.h.h.h.h.h.h.h.h.h.h.h.q.=.3 t 8 3 2 q y ~ w.h.h.h.h.h.h.h.h.h.h.h.h.",
"h.h.h.h.h.h.h.h.h.h.h.h.h.h.h.h.h.h.h.h.h.h.h.h.h.h.h.h.h.h.h.h.h.h.h.h.h.h.h.h.1.> t w 5 3 < w t ~ e.h.h.h.h.h.h.h.h.h.h.h.h.h.",
"h.h.h.h.h.h.h.h.h.h.h.h.h.h.h.h.h.h.h.h.h.h.h.h.h.h.h.h.h.h.h.h.h.h.h.h.h.h.e.+.3 y r 3 3 < h t ^ t.h.h.h.h.h.h.h.h.h.h.h.h.h.h.",
"h.h.h.h.h.h.h.h.h.h.h.h.h.h.h.h.h.h.h.h.h.h.h.h.h.h.h.h.h.h.h.h.h.h.h.h.h.4.! t i w 4 4 3 h t ..u.h.h.h.h.h.h.h.h.h.h.h.h.h.h.h.",
"h.h.h.h.h.h.h.h.h.h.h.h.h.h.h.h.h.h.h.h.h.h.h.h.h.h.h.h.h.h.h.h.h.h.h.t.%.< a k 4 4 4 3 h t X.i.h.h.h.h.h.h.h.h.h.h.h.h.h.h.h.h.",
"h.h.h.h.h.h.h.h.h.h.h.h.h.h.h.h.h.h.h.h.h.h.h.h.h.h.h.h.h.h.h.h.h.h.6.) t f k t t 4 3 j 4 @.a.h.h.h.h.h.h.h.h.h.h.h.h.h.h.h.h.h.",
"h.h.h.h.h.h.h.h.h.h.h.h.h.h.h.h.h.h.h.h.h.h.h.h.h.h.h.h.h.h.h.h.i.*., a H y y t t 4 c 3 @.d.h.h.h.h.h.h.h.h.h.h.h.h.h.h.h.h.h.h.",
"h.h.h.h.h.h.h.h.h.h.h.h.h.h.h.h.h.h.h.h.h.h.h.h.h.h.h.h.h.h.h.0.' t d l y y y t 6 z 3 $.f.h.h.h.h.h.h.h.h.h.h.h.h.h.h.h.h.h.h.h.",
"h.h.h.h.h.h.h.h.h.h.h.h.h.h.h.h.h.h.h.h.h.h.h.h.h.h.h.h.h.d.<.& d H i a y y y u z < :.h.h.h.h.h.h.h.h.h.h.h.h.h.h.h.h.h.h.h.h.h.",
"h.h.h.h.h.h.h.h.h.h.h.h.h.h.h.h.h.h.h.h.h.h.h.h.h.h.h.h.q.o.4 d v a a a a y h g < ,.h.h.h.h.h.h.h.h.h.h.h.h.h.h.h.h.h.h.h.h.h.h.",
"h.h.h.h.h.h.h.h.h.h.h.h.h.h.h.h.h.h.h.h.h.h.h.h.h.h.h.,.: d v g s a a a a j d + 1.h.h.h.h.h.h.h.h.h.h.h.h.h.h.h.h.h.h.h.h.h.h.h.",
"h.h.h.h.h.h.h.h.h.h.h.h.h.h.h.h.h.h.h.h.h.h.h.h.h.e.O.3 d v d d d a a a c d + 1.h.h.h.h.h.h.h.h.h.h.h.h.h.h.h.h.h.h.h.h.h.h.h.h.",
"h.h.h.h.h.h.h.h.h.h.h.h.h.h.h.h.h.h.h.h.h.h.h.h.4.E a v g d d d d d a H d O 4.h.h.h.h.h.h.h.h.h.h.h.h.h.h.h.h.h.h.h.h.h.h.h.h.h.",
"h.h.h.h.h.h.h.h.h.h.h.h.h.h.h.h.h.h.h.h.h.h.t.*.< d v d d d d d d a v d + 4.h.h.h.h.h.h.h.h.h.h.h.h.h.h.h.h.h.h.h.h.h.h.h.h.h.h.",
"h.h.h.h.h.h.h.h.h.h.h.h.h.h.h.h.h.h.h.h.h.6.) y g z d d d d d d d x d > 6.h.h.h.h.h.h.h.h.h.h.h.h.h.h.h.h.h.h.h.h.h.h.h.h.h.h.h.",
"h.h.h.h.h.h.h.h.h.h.h.h.h.h.h.h.h.h.h.i.<., d c a d d d d d d d d v O } q.h.;.,.;.;.;.;.;.:.,.1.3.h.h.h.h.h.h.h.h.h.h.h.h.h.h.h.",
"h.h.h.h.h.h.h.h.h.h.h.h.h.h.h.h.h.h.0.' 4 d j a a a a d d d d d d d l 4 t P L K L K L K K A A A Z { 5.h.h.h.h.h.h.h.h.h.h.h.h.h.",
"h.h.h.h.h.h.h.h.h.h.h.h.h.h.h.h.d.<.= a c y y a a a s d d d d d d d d d d d d a a a a p y y t u d <  .h.h.h.h.h.h.h.h.h.h.h.h.h.",
"h.h.h.h.h.h.h.h.h.h.h.h.h.h.h.w.=.3 a k t y y a a a a d d d d d d d d d f a a a i y y t t 6 k y , <.s.h.h.h.h.h.h.h.h.h.h.h.h.h.",
"h.h.h.h.h.h.h.h.h.h.h.h.h.h.4.T y l 6 t y y y y y a a a d d d d d d d d d d a a a y y y h a t ) 6.h.h.h.h.h.h.h.h.h.h.h.h.h.h.h.",
"h.h.h.h.h.h.h.h.h.h.h.h.h.>.O d k 4 y y y y a a a d d d g d d d d d d d d a a a a y y l a < *.t.h.h.h.h.h.h.h.h.h.h.h.h.h.h.h.h.",
"h.h.h.h.h.h.h.h.h.h.h.h.h.q.-.V K F S S S D D D G G G y t l d d d d d d d a a a a i x y E 4.h.h.h.h.h.h.h.h.h.h.h.h.h.h.h.h.h.h.",
"h.h.h.h.h.h.h.h.h.h.h.h.h.h.h.6.1.<.<.$.:.:.:.:.:.$.#.9.} o v d d d d d d d d a c d 3 +.e.h.h.h.h.h.h.h.h.h.h.h.h.h.h.h.h.h.h.h.",
"h.h.h.h.h.h.h.h.h.h.h.h.h.h.h.h.h.h.h.h.h.h.h.h.h.h.h.w.W a v d d d d d d a f v a T ,.h.h.h.h.h.h.h.h.h.h.h.h.h.h.h.h.h.h.h.h.h.",
"h.h.h.h.h.h.h.h.h.h.h.h.h.h.h.h.h.h.h.h.h.h.h.h.h.h.7.I d H a d d d d d d v d 4 o.w.h.h.h.h.h.h.h.h.h.h.h.h.h.h.h.h.h.h.h.h.h.h.",
"h.h.h.h.h.h.h.h.h.h.h.h.h.h.h.h.h.h.h.h.h.h.h.h.h.7.- d H a a d d d d d J d & <.d.h.h.h.h.h.h.h.h.h.h.h.h.h.h.h.h.h.h.h.h.h.h.h.",
"h.h.h.h.h.h.h.h.h.h.h.h.h.h.h.h.h.h.h.h.h.h.h.h.6.% d H a d a d d d v d y ~ 0.h.h.h.h.h.h.h.h.h.h.h.h.h.h.h.h.h.h.h.h.h.h.h.h.h.",
"h.h.h.h.h.h.h.h.h.h.h.h.h.h.h.h.h.h.h.h.h.h.h.4.o d l y a a a d d J d , <.i.h.h.h.h.h.h.h.h.h.h.h.h.h.h.h.h.h.h.h.h.h.h.h.h.h.h.",
"h.h.h.h.h.h.h.h.h.h.h.h.h.h.h.h.h.h.h.h.h.h.4.O d j y y a a a x x y ) 6.h.h.h.h.h.h.h.h.h.h.h.h.h.h.h.h.h.h.h.h.h.h.h.h.h.h.h.h.",
"h.h.h.h.h.h.h.h.h.h.h.h.h.h.h.h.h.h.h.h.h.,.O d h y y a a a v d < %.u.h.h.h.h.h.h.h.h.h.h.h.h.h.h.h.h.h.h.h.h.h.h.h.h.h.h.h.h.h.",
"h.h.h.h.h.h.h.h.h.h.h.h.h.h.h.h.h.h.h.h.,., a 6 t t y y j x y E 4.h.h.h.h.h.h.h.h.h.h.h.h.h.h.h.h.h.h.h.h.h.h.h.h.h.h.h.h.h.h.h.",
"h.h.h.h.h.h.h.h.h.h.h.h.h.h.h.h.h.h.h.;., a 6 t t t y l d 3 +.e.h.h.h.h.h.h.h.h.h.h.h.h.h.h.h.h.h.h.h.h.h.h.h.h.h.h.h.h.h.h.h.h.",
"h.h.h.h.h.h.h.h.h.h.h.h.h.h.h.h.h.h.:.< a w 4 4 t u j a > ,.h.h.h.h.h.h.h.h.h.h.h.h.h.h.h.h.h.h.h.h.h.h.h.h.h.h.h.h.h.h.h.h.h.h.",
"h.h.h.h.h.h.h.h.h.h.h.h.h.h.h.h.g.:.< y q 4 4 t k a 4 o.w.h.h.h.h.h.h.h.h.h.h.h.h.h.h.h.h.h.h.h.h.h.h.h.h.h.h.h.h.h.h.h.h.h.h.h.",
"h.h.h.h.h.h.h.h.h.h.h.h.h.h.h.f.$.3 y 5 3 4 4 k a b <.d.h.h.h.h.h.h.h.h.h.h.h.h.h.h.h.h.h.h.h.h.h.h.h.h.h.h.h.h.h.h.h.h.h.h.h.h.",
"h.h.h.h.h.h.h.h.h.h.h.h.h.h.d.@.3 y 8 3 3 r y t ' 0.h.h.h.h.h.h.h.h.h.h.h.h.h.h.h.h.h.h.h.h.h.h.h.h.h.h.h.h.h.h.h.h.h.h.h.h.h.h.",
"h.h.h.h.h.h.h.h.h.h.h.h.h.i.%.4 t 8 3 < r a < <.i.h.h.h.h.h.h.h.h.h.h.h.h.h.h.h.h.h.h.h.h.h.h.h.h.h.h.h.h.h.h.h.h.h.h.h.h.h.h.h.",
"h.h.h.h.h.h.h.h.h.h.h.h.u.%.4 t 2 < 2 h t ) 4.h.h.h.h.h.h.h.h.h.h.h.h.h.h.h.h.h.h.h.h.h.h.h.h.h.h.h.h.h.h.h.h.h.h.h.h.h.h.h.h.h.",
"h.h.h.h.h.h.h.h.h.h.h.u.+.4 h 7 < e y < %.t.h.h.h.h.h.h.h.h.h.h.h.h.h.h.h.h.h.h.h.h.h.h.h.h.h.h.h.h.h.h.h.h.h.h.h.h.h.h.h.h.h.h.",
"h.h.h.h.h.h.h.h.h.h.r.o.4 k 1 1 r y ! 4.h.h.h.h.h.h.h.h.h.h.h.h.h.h.h.h.h.h.h.h.h.h.h.h.h.h.h.h.h.h.h.h.h.h.h.h.h.h.h.h.h.h.h.h.",
"h.h.h.h.h.h.h.h.h.r.o.4 k + 0 t 3 +.e.h.h.h.h.h.h.h.h.h.h.h.h.h.h.h.h.h.h.h.h.h.h.h.h.h.h.h.h.h.h.h.h.h.h.h.h.h.h.h.h.h.h.h.h.h.",
"h.h.h.h.h.h.h.h.e.~ t N # r t > 1.h.h.h.h.h.h.h.h.h.h.h.h.h.h.h.h.h.h.h.h.h.h.h.h.h.h.h.h.h.h.h.h.h.h.h.h.h.h.h.h.h.h.h.h.h.h.h.",
"h.h.h.h.h.h.h.e._ y M 9 t 4 =.q.h.h.h.h.h.h.h.h.h.h.h.h.h.h.h.h.h.h.h.h.h.h.h.h.h.h.h.h.h.h.h.h.h.h.h.h.h.h.h.h.h.h.h.h.h.h.h.h.",
"h.h.h.h.h.h.q.( y B 0 y $ <.p.h.h.h.h.h.h.h.h.h.h.h.h.h.h.h.h.h.h.h.h.h.h.h.h.h.h.h.h.h.h.h.h.h.h.h.h.h.h.h.h.h.h.h.h.h.h.h.h.h.",
"h.h.h.h.h.0.W y C 4 t ] 0.h.h.h.h.h.h.h.h.h.h.h.h.h.h.h.h.h.h.h.h.h.h.h.h.h.h.h.h.h.h.h.h.h.h.h.h.h.h.h.h.h.h.h.h.h.h.h.h.h.h.h.",
"h.h.h.h.0.U y C t < <.u.h.h.h.h.h.h.h.h.h.h.h.h.h.h.h.h.h.h.h.h.h.h.h.h.h.h.h.h.h.h.h.h.h.h.h.h.h.h.h.h.h.h.h.h.h.h.h.h.h.h.h.h.",
"h.h.h.7.; y F 4 ) 4.h.h.h.h.h.h.h.h.h.h.h.h.h.h.h.h.h.h.h.h.h.h.h.h.h.h.h.h.h.h.h.h.h.h.h.h.h.h.h.h.h.h.h.h.h.h.h.h.h.h.h.h.h.h.",
"h.h.6.- a t < &.r.h.h.h.h.h.h.h.h.h.h.h.h.h.h.h.h.h.h.h.h.h.h.h.h.h.h.h.h.h.h.h.h.h.h.h.h.h.h.h.h.h.h.h.h.h.h.h.h.h.h.h.h.h.h.h.",
"h.7.- d t E 1.h.h.h.h.h.h.h.h.h.h.h.h.h.h.h.h.h.h.h.h.h.h.h.h.h.h.h.h.h.h.h.h.h.h.h.h.h.h.h.h.h.h.h.h.h.h.h.h.h.h.h.h.h.h.h.h.h.",
"y.. 3 < O.e.h.h.h.h.h.h.h.h.h.h.h.h.h.h.h.h.h.h.h.h.h.h.h.h.h.h.h.h.h.h.h.h.h.h.h.h.h.h.h.h.h.h.h.h.h.h.h.h.h.h.h.h.h.h.h.h.h.h.",
"s.8.<.4.h.h.h.h.h.h.h.h.h.h.h.h.h.h.h.h.h.h.h.h.h.h.h.h.h.h.h.h.h.h.h.h.h.h.h.h.h.h.h.h.h.h.h.h.h.h.h.h.h.h.h.h.h.h.h.h.h.h.h.h."
};
