/* XPM */
static char *result[] = {
/* columns rows colors chars-per-pixel */
"64 64 204 2 ",
"   c black",
".  c #060606",
"X  c #070707",
"o  c gray3",
"O  c #090909",
"+  c gray5",
"@  c #0E0E0E",
"#  c gray6",
"$  c #111111",
"%  c gray7",
"&  c #151515",
"*  c #161616",
"=  c gray9",
"-  c gray10",
";  c #232323",
":  c gray15",
">  c #272727",
",  c #282828",
"<  c gray20",
"1  c #353535",
"2  c gray21",
"3  c #373737",
"4  c gray22",
"5  c #393939",
"6  c #3A3A3A",
"7  c gray23",
"8  c #3C3C3C",
"9  c gray24",
"0  c #3E3E3E",
"q  c #3F3F3F",
"w  c gray25",
"e  c #414141",
"r  c #434343",
"t  c gray27",
"y  c gray28",
"u  c #484848",
"i  c #494949",
"p  c gray29",
"a  c #4B4B4B",
"s  c #4C4C4C",
"d  c gray30",
"f  c #4E4E4E",
"g  c gray31",
"h  c gray32",
"j  c #535353",
"k  c gray33",
"l  c #555555",
"z  c #565656",
"x  c gray34",
"c  c #585858",
"v  c gray35",
"b  c #5A5A5A",
"n  c gray36",
"m  c #5D5D5D",
"M  c gray37",
"N  c #5F5F5F",
"B  c #606060",
"V  c gray38",
"C  c #626262",
"Z  c gray39",
"A  c #646464",
"S  c #656565",
"D  c gray40",
"F  c #676767",
"G  c #686868",
"H  c DimGray",
"J  c #6A6A6A",
"K  c gray42",
"L  c #6C6C6C",
"P  c gray43",
"I  c #6F6F6F",
"U  c gray44",
"Y  c #717171",
"T  c gray45",
"R  c gray46",
"E  c #767676",
"W  c #777777",
"Q  c gray47",
"!  c #797979",
"~  c gray48",
"^  c #7B7B7B",
"/  c #7C7C7C",
"(  c gray49",
")  c #7E7E7E",
"_  c gray50",
"`  c #818181",
"'  c gray51",
"]  c #838383",
"[  c #848484",
"{  c gray52",
"}  c gray53",
"|  c #888888",
" . c #898989",
".. c gray54",
"X. c #8B8B8B",
"o. c gray55",
"O. c #8D8D8D",
"+. c #8E8E8E",
"@. c #909090",
"#. c gray57",
"$. c #929292",
"%. c #939393",
"&. c gray58",
"*. c #959595",
"=. c gray59",
"-. c #979797",
";. c #989898",
":. c gray60",
">. c #9A9A9A",
",. c #9B9B9B",
"<. c gray62",
"1. c #A0A0A0",
"2. c gray63",
"3. c #A2A2A2",
"4. c gray64",
"5. c #A4A4A4",
"6. c #A5A5A5",
"7. c #A7A7A7",
"8. c #A9A9A9",
"9. c #AAAAAA",
"0. c gray67",
"q. c #ACACAC",
"w. c gray68",
"e. c #AEAEAE",
"r. c #AFAFAF",
"t. c gray69",
"y. c #B1B1B1",
"u. c #B2B2B2",
"i. c gray70",
"p. c #B4B4B4",
"a. c gray71",
"s. c #B7B7B7",
"d. c gray72",
"f. c #B9B9B9",
"g. c gray73",
"h. c #BBBBBB",
"j. c #BCBCBC",
"k. c gray74",
"l. c gray",
"z. c gray75",
"x. c #C0C0C0",
"c. c #C1C1C1",
"v. c gray76",
"b. c #C3C3C3",
"n. c gray77",
"m. c #C5C5C5",
"M. c #C6C6C6",
"N. c gray78",
"B. c #C8C8C8",
"V. c gray79",
"C. c #CACACA",
"Z. c #CBCBCB",
"A. c gray80",
"S. c #CDCDCD",
"D. c #CECECE",
"F. c gray81",
"G. c #D0D0D0",
"H. c gray82",
"J. c #D2D2D2",
"K. c LightGray",
"L. c gray83",
"P. c #D5D5D5",
"I. c gray84",
"U. c #D7D7D7",
"Y. c #D8D8D8",
"T. c gray85",
"R. c gray86",
"E. c gainsboro",
"W. c #DDDDDD",
"Q. c gray87",
"!. c #DFDFDF",
"~. c gray88",
"^. c #E1E1E1",
"/. c #E2E2E2",
"(. c gray89",
"). c #E4E4E4",
"_. c gray90",
"`. c #E6E6E6",
"'. c #E7E7E7",
"]. c gray91",
"[. c #E9E9E9",
"{. c #EAEAEA",
"}. c gray92",
"|. c #ECECEC",
" X c gray93",
".X c #EEEEEE",
"XX c #EFEFEF",
"oX c gray94",
"OX c #F1F1F1",
"+X c gray95",
"@X c #F3F3F3",
"#X c #F4F4F4",
"$X c gray96",
"%X c #F6F6F6",
"&X c gray97",
"*X c #F8F8F8",
"=X c #F9F9F9",
"-X c gray98",
";X c #FBFBFB",
":X c gray99",
">X c #FDFDFD",
",X c #FEFEFE",
"<X c white",
"1X c None",
/* pixels */
"1X1XM.1X1X1X1X1X1X1X1X1X1X1X1X1X1X1X1X1X1X1X1X1X1X1X1X1X1X1X1X1X1X1X1X1X1X1X1X1X1X1X1X1X1X1X1X1X1X1X1X1X1X1X1X1X1X1X1X1X1XM.1X1X",
"1Xb.V.t.1X1X1X1X1X1X1X1X1X1X1X1X1X1X1X1X1X1X1X1X1X1X1X1X1X1X1X1X1X1X1X1X1X1X1X1X1X1X1X1X1X1X1X1X1X1X1X1X1X1X1X1X1X1X1X1Xu.V.n.1X",
"1XY.Z.g.*X<Xf.  L ;X<X2.  X.<X<X{   6.<X=XD   k.<XXX6   G.<X^.    /.<XH.  8 XX<Xk.  D -X<X6.  { <X<XX.  2.<X;XK   f.<X&Xh.Z.Y.1X",
"x.G.i.y.x.$Xq.  A [.#X=.  ' oXXX^   :.$X'.B   r.&XW.4   c.=XH.    H.=Xv.  5 W.&Xr.  N ].$X:.  ^ XXoX'   =.#X[.A   q.$Xx.y.u.G.x.",
"m.J.r.y.h.%Xw.  Z {.$X=.  ` OXoX^   :.%X].M   t.=X!.<   v.-XJ.    J.-Xb.  1 !.=Xt.  m [.%X:.  ^ oXOX`   =.$X{.C   w.%Xh.y.r.J.m.",
"c.G.t.t.h.@Xw.  F ].+X=.  ] .X.X(   >.@X`.C   t.%XW.9   c.*XG.    H.&Xc.  q W.%Xr.  V `.@X>.  ( .X.X]   -.+X].D   q.@Xg.t.t.G.c.",
"z.f.i.d.r.i r.].J.F a l.[.B.x v C.].j.y J K.'.w.0 ^ R._.<.2 O.^.^.O.3 <._.R.^ 9 e.'.K.J u j.].C.v x B.[.l.a D J.'.t.u r.s.i.f.z.",
"t.8.8.0...  t.:X~.%   n.>XJ.    P.>Xv.  , ^.:Xw.  c |.*X=.  ^ @X@X~   *.*X|.v   w.:X/.>   v.>XP.    J.>Xn.  @ ~.:Xt.  X.0.9.9.t.",
"1X,.:.#.2   t.$XR.e   v.%XD.X & H.%Xx.  i E.$Xw.  D `.OX:.  '  X X`   ;.OX`.F   w.$XW.u   z.%XH.& . D.%Xv.  w R.$Xy.  3 #.;.,.1X",
"1X1X] H.l   y.<X/.    M.<XL.    U.<Xb.    ).<Xq.  f XX:X*.  W %X&XR   &.:XXXg   w.<X).    b.<XU.    L.<Xm.    (.<Xu.  z H.[ 1X1X",
"1X1X( f.<. .r.C.z.&.O.a.Z.g.@.@.h.Z.a.o.*.x.C.e.X.>.n.V.7...2.N.N.1...7.V.n.>...e.C.x.*.O.p.Z.h.@.@.g.Z.a.O.&.z.C.r. .<.d.( 1X1X",
"1X1X] 5 ).<X0.  k XX;X$.  ~ &X%XT   =.:X Xd   t.<X(.    b.<XP.    P.<Xn.    (.<Xr.  s .X:X=.  T %X&X~   $.;XoXj   9.<X(.7 ' 1X1X",
"1X1X' z Q.$X0.  G ].+X-.  ] .X X(   >.@X`.Z   t.%XW.q   c.&XG.    G.&Xc.  e E.%Xr.  C `.@X>.  )  X.X]   -.+X].F   0.%XW.x ` 1X1X",
"1X1X' j !.&X0.  S [.@X=.  ' XX.X/   :.#X'.V   t.&XQ.6   c.*XG.    H.*Xv.  8 W.&Xr.  B '.#X:.  / .XXX'   =.@X[.S   0.&XQ.k ` 1X1X",
"1X1X' r /.:X0.  b  X=X%.  / #X#XE   -.-X}.k   t.:X^.#   b.,XK.    L.,Xn.  & ^.>Xr.  j |.-X-.  E #X#X(   &.=X.Xv   9.>X/.t ` 1X1X",
"1X1X) z.$.U t.Y.B.] E f.T.x.^ / v.Y.d.R { V.Y.w.Y +.F.P.4.I :.K.K.;.I 4.I.D.+.Y e.Y.V.[ R d.Y.v./ ^ x.T.f.E ] B.Y.t.I $.z._ 1X1X",
"1X1X( T.n   y.,X^.    m.<XK.    I.<Xv.  $ (.,Xq.  h .X-X*.  Q $X%XW   &.;X.Xj   w.,X(.+   v.<XI.    K.<Xm.    ^.,Xu.  m Y.( 1X1X",
"1X1X( J.P   y.$XR.e   v.%XD.O * H.%Xx.  i E.$Xw.  D `.OX:.  '  X X`   ;.OX`.F   w.#XW.u   z.%XH.* o D.%Xv.  w R.$Xu.  I J.) 1X1X",
"1X1X( Y.M   y.>X^.    m.<XK.    I.<Xv.  - (.>Xw.  k  X-X=.  ! #X$XQ   *.-X Xl   w.>X(.=   v.<XI.    K.<Xm.    ^.>Xu.  N Y.) 1X1X",
"1X1X) b.o.V t.W.Z.~ H h.Q.b.U Y m.Q.f.G / A.W.w.Z } K.R.3.B *.Y.Y.&.B 2.R.K.| C e.W.S./ G f.Q.m.Y U b.Q.h.J ~ A.W.t.B o.v.) 1X1X",
"1X1X' u ^.-X0.  M |.&X&.  ) @X+XQ   ;.*X{.c   t.;X~.;   v.:XJ.    K.:Xb.  : ~.;Xr.  c {.*X;.  Q +X@X_   &.&X|.m   0.;X~.p ` 1X1X",
"1X1X' h !.&X0.  S [.@X=.  ' XXXX/   :.#X'.B   t.&XQ.5   c.=XH.    H.*Xv.  6 W.&Xr.  N '.#X:.  / XXXX'   =.@X[.A   0.&XQ.j ` 1X1X",
"1X1X' h Q.&Xq.  S {.#X*.  ` oXXX^   :.$X].N   t.*XQ.3   c.=XH.    H.=Xv.  5 W.*Xr.  M ].$X:.  / XXoX'   =.#X{.A   0.*XQ.j ` 1X1X",
"1X1X' h XX<Xs.  K =X<X1.  ..<X<X[   5.<X&XD   j.<X X6   F.<X!.    ~.<XF.  8  X<Xh.  S *X<X5.  [ <X<X..  1.<X=XJ   s.<X.Xk ` 1X1X",
"1X1X{ N 1X1X1X1X1X1X1X1X1X1X1X1X1X1X1X1X1X1X1X1X1X1X1X1X1X1X1X1X1X1X1X1X1X1X1X1X1X1X1X1X1X1X1X1X1X1X1X1X1X1X1X1X1X1X1X1XN { 1X1X",
"1X1X| 1X1X1X1X1X1X1X1X1X1X1X1X1X1X1X1X1X1X1X1X1X1X1X1X1X1X1X1X1X1X1X1X1X1X1X1X1X1X1X1X1X1X1X1X1X1X1X1X1X1X1X1X1X1X1X1X1X1X| 1X1X",
"1X1X} 1X1X1X1X1X1X1X1X1X1X1X1X1X1X1X1X1X1X1X1X1X1X1X1X1X1X1X1X1X1X1X1X1X1X1X1X1X1X1X1X1X1X1X1X1X1X1X1X1X1X1X1X1X1X1X1X1X1X} 1X1X",
"1X1X} 1X1X1X1X1X1X1X1X1X1X1X1X1X1X1X1X1X1X1X1X1X1X1X1X1X1X1X1X1X1X1X1X1X1X1X1X1X1X1X1X1X1X1X1X1X1X1X1X1X1X1X1X1X1X1X1X1X1X| 1X1X",
"1X1X} 1X1X1X1X1X1X1X1X1X1X1X1X1X1X1X1X1X1X1X1X1X1X1X1X1X1X1X1X1X1X1X1X1X1X1X1X1X1X1X1X1X1X1X1X1X1X1X1X1X1X1X1X1X1X1X1X1X1X| 1X1X",
"1X1X} 1X1X1X1X1X1X1X1X1X1X1X1X1X1X1X1X1X1X1X1X1X1X1X1X1X1X1X1X1X1X1X1X1X1X1X1X1X1X1X1X1X1X1X1X1X1X1X1X1X1X1X1X1X1X1X1X1X1X| 1X1X",
"1X1X} 1X1X1X1X1X1X1X1X1X1X1X1X1X1X1X1X1X1X1X1X1X1X1X1X1X1X1X1X1X1X1X1X1X1X1X1X1X1X1X1X1X1X1X1X1X1X1X1X1X1X1X1X1X1X1X1X1X1X| 1X1X",
"1X1X} 1X1X1X1X1X1X1X1X1X1X1X1X1X1X1X1X1X1X1X1X1X1X1X1X1X1X1X1X1X1X1X1X1X1X1X1X1X1X1X1X1X1X1X1X1X1X1X1X1X1X1X1X1X1X1X1X1X1X| 1X1X",
"1X1X} 1X1X1X1X1X1X1X1X1X1X1X1X1X1X1X1X1X1X1X1X1X1X1X1X1X1X1X1X1X1X1X1X1X1X1X1X1X1X1X1X1X1X1X1X1X1X1X1X1X1X1X1X1X1X1X1X1X1X| 1X1X",
"1X1X} 1X1X1X1X1X1X1X1X1X1X1X1X1X1X1X1X1X1X1X1X1X1X1X1X1X1X1X1X1X1X1X1X1X1X1X1X1X1X1X1X1X1X1X1X1X1X1X1X1X1X1X1X1X1X1X1X1X1X| 1X1X",
"1X1X} 1X1X1X1X1X1X1X1X1X1X1X1X1X1X1X1X1X1X1X1X1X1X1X1X1X1X1X1X1X1X1X1X1X1X1X1X1X1X1X1X1X1X1X1X1X1X1X1X1X1X1X1X1X1X1X1X1X1X| 1X1X",
"1X1X} 1X1X1X1X1X1X1X1X1X1X1X1X1X1X1X1X1X1X1X1X1X1X1X1X1X1X1X1X1X1X1X1X1X1X1X1X1X1X1X1X1X1X1X1X1X1X1X1X1X1X1X1X1X1X1X1X1X1X| 1X1X",
"1X1X} 1X1X1X1X1X1X1X1X1X1X1X1X1X1X1X1X1X1X1X1X1X1X1X1X1X1X1X1X1X1X1X1X1X1X1X1X1X1X1X1X1X1X1X1X1X1X1X1X1X1X1X1X1X1X1X1X1X1X| 1X1X",
"1X1X} 1X1X1X1X1X1X1X1X1X1X1X1X1X1X1X1X1X1X1X1X1X1X1X1X1X1X1X1X1X1X1X1X1X1X1X1X1X1X1X1X1X1X1X1X1X1X1X1X1X1X1X1X1X1X1X1X1X1X| 1X1X",
"1X1X} 1X1X1X1X1X1X1X1X1X1X1X1X1X1X1X1X1X1X1X1X1X1X1X1X1X1X1X1X1X1X1X1X1X1X1X1X1X1X1X1X1X1X1X1X1X1X1X1X1X1X1X1X1X1X1X1X1X1X| 1X1X",
"1X1X} 1X1X1X1X1X1X1X1X1X1X1X1X1X1X1X1X1X1X1X1X1X1X1X1X1X1X1X1X1X1X1X1X1X1X1X1X1X1X1X1X1X1X1X1X1X1X1X1X1X1X1X1X1X1X1X1X1X1X| 1X1X",
"1X1X} 1X1X1X1X1X1X1X1X1X1X1X1X1X1X1X1X1X1X1X1X1X1X1X1X1X1X1X1X1X1X1X1X1X1X1X1X1X1X1X1X1X1X1X1X1X1X1X1X1X1X1X1X1X1X1X1X1X1X| 1X1X",
"1X1X} 1X1X1X1X1X1X1X1X1X1X1X1X1X1X1X1X1X1X1X1X1X1X1X1X1X1X1X1X1X1X1X1X1X1X1X1X1X1X1X1X1X1X1X1X1X1X1X1X1X1X1X1X1X1X1X1X1X1X| 1X1X",
"1X1X} 1X1X1X1X1X1X1X1X1X1X1X1X1X1X1X1X1X1X1X1X1X1X1X1X1X1X1X1X1X1X1X1X1X1X1X1X1X1X1X1X1X1X1X1X1X1X1X1X1X1X1X1X1X1X1X1X1X1X| 1X1X",
"1X1X} 1X1X1X1X1X1X1X1X1X1X1X1X1X1X1X1X1X1X1X1X1X1X1X1X1X1X1X1X1X1X1X1X1X1X1X1X1X1X1X1X1X1X1X1X1X1X1X1X1X1X1X1X1X1X1X1X1X1X| 1X1X",
"1X1X} 1X1X1X1X1X1X1X1X1X1X1X1X1X1X1X1X1X1X1X1X1X1X1X1X1X1X1X1X1X1X1X1X1X1X1X1X1X1X1X1X1X1X1X1X1X1X1X1X1X1X1X1X1X1X1X1X1X1X| 1X1X",
"1X1X} 1X1X1X1X1X1X1X1X1X1X1X1X1X1X1X1X1X1X1X1X1X1X1X1X1X1X1X1X1X1X1X1X1X1X1X1X1X1X1X1X1X1X1X1X1X1X1X1X1X1X1X1X1X1X1X1X1X1X| 1X1X",
"1X1X} 1X1X1X1X1X1X1X1X1X1X1X1X1X1X1X1X1X1X1X1X1X1X1X1X1X1X1X1X1X1X1X1X1X1X1X1X1X1X1X1X1X1X1X1X1X1X1X1X1X1X1X1X1X1X1X1X1X1X| 1X1X",
"1X1X} 1X1X1X1X1X1X1X1X1X1X1X1X1X1X1X1X1X1X1X1X1X1X1X1X1X1X1X1X1X1X1X1X1X1X1X1X1X1X1X1X1X1X1X1X1X1X1X1X1X1X1X1X1X1X1X1X1X1X| 1X1X",
"1X1X} 1X1X1X1X1X1X1X1X1X1X1X1X1X1X1X1X1X1X1X1X1X1X1X1X1X1X1X1X1X1X1X1X1X1X1X1X1X1X1X1X1X1X1X1X1X1X1X1X1X1X1X1X1X1X1X1X1X1X| 1X1X",
"1X1X} 1X1X1X1X1X1X1X1X1X1X1X1X1X1X1X1X1X1X1X1X1X1X1X1X1X1X1X1X1X1X1X1X1X1X1X1X1X1X1X1X1X1X1X1X1X1X1X1X1X1X1X1X1X1X1X1X1X1X| 1X1X",
"1X1X} 1X1X1X1X1X1X1X1X1X1X1X1X1X1X1X1X1X1X1X1X1X1X1X1X1X1X1X1X1X1X1X1X1X1X1X1X1X1X1X1X1X1X1X1X1X1X1X1X1X1X1X1X1X1X1X1X1X1X| 1X1X",
"1X1X} 1X1X1X1X1X1X1X1X1X1X1X1X1X1X1X1X1X1X1X1X1X1X1X1X1X1X1X1X1X1X1X1X1X1X1X1X1X1X1X1X1X1X1X1X1X1X1X1X1X1X1X1X1X1X1X1X1X1X| 1X1X",
"1X1X} 1X1X1X1X1X1X1X1X1X1X1X1X1X1X1X1X1X1X1X1X1X1X1X1X1X1X1X1X1X1X1X1X1X1X1X1X1X1X1X1X1X1X1X1X1X1X1X1X1X1X1X1X1X1X1X1X1X1X| 1X1X",
"1X1X} 1X1X1X1X1X1X1X1X1X1X1X1X1X1X1X1X1X1X1X1X1X1X1X1X1X1X1X1X1X1X1X1X1X1X1X1X1X1X1X1X1X1X1X1X1X1X1X1X1X1X1X1X1X1X1X1X1X1X| 1X1X",
"1X1X} 1X1X1X1X1X1X1X1X1X1X1X1X1X1X1X1X1X1X1X1X1X1X1X1X1X1X1X1X1X1X1X1X1X1X1X1X1X1X1X1X1X1X1X1X1X1X1X1X1X1X1X1X1X1X1X1X1X1X| 1X1X",
"1X1X} 1X1X1X1X1X1X1X1X1X1X1X1X1X1X1X1X1X1X1X1X1X1X1X1X1X1X1X1X1X1X1X1X1X1X1X1X1X1X1X1X1X1X1X1X1X1X1X1X1X1X1X1X1X1X1X1X1X1X| 1X1X",
"1X1X} 1X1X1X1X1X1X1X1X1X1X1X1X1X1X1X1X1X1X1X1X1X1X1X1X1X1X1X1X1X1X1X1X1X1X1X1X1X1X1X1X1X1X1X1X1X1X1X1X1X1X1X1X1X1X1X1X1X1X| 1X1X",
"1X1X} 1X1X1X1X1X1X1X1X1X1X1X1X1X1X1X1X1X1X1X1X1X1X1X1X1X1X1X1X1X1X1X1X1X1X1X1X1X1X1X1X1X1X1X1X1X1X1X1X1X1X1X1X1X1X1X1X1X1X| 1X1X",
"1X1X} 1X1X1X1X1X1X1X1X1X1X1X1X1X1X1X1X1X1X1X1X1X1X1X1X1X1X1X1X1X1X1X1X1X1X1X1X1X1X1X1X1X1X1X1X1X1X1X1X1X1X1X1X1X1X1X1X1X1X| 1X1X",
"1X1X} 1X1X1X1X1X1X1X1X1X1X1X1X1X1X1X1X1X1X1X1X1X1X1X1X1X1X1X1X1X1X1X1X1X1X1X1X1X1X1X1X1X1X1X1X1X1X1X1X1X1X1X1X1X1X1X1X1X1X| 1X1X",
"1X1X} 1X1X1X1X1X1X1X1X1X1X1X1X1X1X1X1X1X1X1X1X1X1X1X1X1X1X1X1X1X1X1X1X1X1X1X1X1X1X1X1X1X1X1X1X1X1X1X1X1X1X1X1X1X1X1X1X1X1X| 1X1X",
"1X1X} 1X1X1X1X1X1X1X1X1X1X1X1X1X1X1X1X1X1X1X1X1X1X1X1X1X1X1X1X1X1X1X1X1X1X1X1X1X1X1X1X1X1X1X1X1X1X1X1X1X1X1X1X1X1X1X1X1X1X| 1X1X",
"1X1X} 1X1X1X1X1X1X1X1X1X1X1X1X1X1X1X1X1X1X1X1X1X1X1X1X1X1X1X1X1X1X1X1X1X1X1X1X1X1X1X1X1X1X1X1X1X1X1X1X1X1X1X1X1X1X1X1X1X1X| 1X1X",
"1X1X} 1X1X1X1X1X1X1X1X1X1X1X1X1X1X1X1X1X1X1X1X1X1X1X1X1X1X1X1X1X1X1X1X1X1X1X1X1X1X1X1X1X1X1X1X1X1X1X1X1X1X1X1X1X1X1X1X1X1X| 1X1X"
};
