/* XPM */
static char *result[] = {
/* columns rows colors chars-per-pixel */
"64 64 206 2 ",
"   c #4D9044",
".  c #4C9144",
"X  c #4D9144",
"o  c #4D9145",
"O  c #4E9144",
"+  c #4F9144",
"@  c #4F9145",
"#  c #4D9244",
"$  c #4E9244",
"%  c #4F9244",
"&  c #4F9344",
"*  c #4E9245",
"=  c #4F9245",
"-  c #4F9345",
";  c #4F9446",
":  c #509344",
">  c #509245",
",  c #509345",
"<  c #519345",
"1  c #509444",
"2  c #519544",
"3  c #509445",
"4  c #519445",
"5  c #519545",
"6  c #529445",
"7  c #529545",
"8  c #519645",
"9  c #529645",
"0  c #539645",
"q  c #539745",
"w  c #509446",
"e  c #519446",
"r  c #519546",
"t  c #539446",
"y  c #529546",
"u  c #529646",
"i  c #539646",
"p  c #539746",
"a  c #549545",
"s  c #559545",
"d  c #569745",
"f  c #579745",
"g  c #549546",
"h  c #559546",
"j  c #559747",
"k  c #569646",
"l  c #579646",
"z  c #589745",
"x  c #589646",
"c  c #589746",
"v  c #599747",
"b  c #559945",
"n  c #549946",
"m  c #589846",
"M  c #599947",
"N  c #5A9847",
"B  c #5A9947",
"V  c #5B9947",
"C  c #60A547",
"Z  c #61A547",
"A  c #60A647",
"S  c #60A747",
"D  c #61A747",
"F  c #62A647",
"G  c #62A747",
"H  c #63A747",
"J  c #62A847",
"K  c #63A847",
"L  c #63A947",
"P  c #63AA47",
"I  c #64A847",
"U  c #64A947",
"Y  c #64AA47",
"T  c #61A648",
"R  c #62A648",
"E  c #62A748",
"W  c #63A748",
"Q  c #64A748",
"!  c #63A848",
"~  c #63A948",
"^  c #64A848",
"/  c #65A848",
"(  c #64A948",
")  c #67A848",
"_  c #66A948",
"`  c #67A948",
"'  c #64AA48",
"]  c #65AA48",
"[  c #67AA48",
"{  c #67AB48",
"}  c #68AA48",
"|  c #69AA48",
" . c #68AB48",
".. c #69AB48",
"X. c #68AA49",
"o. c #69AB49",
"O. c #6AAA49",
"+. c #6AAB49",
"@. c #6BAB49",
"#. c #6AAC49",
"$. c #6BAC49",
"%. c #6DAD49",
"&. c #6EAD49",
"*. c #6FAE4A",
"=. c #65B249",
"-. c #65B349",
";. c #66B349",
":. c #65B24A",
">. c #66B34A",
",. c #65B549",
"<. c #66B449",
"1. c #67B449",
"2. c #66B549",
"3. c #67B549",
"4. c #66B649",
"5. c #67B649",
"6. c #67B749",
"7. c #65B44A",
"8. c #66B44A",
"9. c #67B44A",
"0. c #67B54A",
"q. c #67B44B",
"w. c #67B64A",
"e. c #67B74A",
"r. c #68B549",
"t. c #68B649",
"y. c #68B749",
"u. c #69B44A",
"i. c #68B54A",
"p. c #69B54A",
"a. c #6AB54A",
"s. c #6BB54A",
"d. c #68B64A",
"f. c #68B74A",
"g. c #6AB64A",
"h. c #6BB64A",
"j. c #6AB74A",
"k. c #6BB74A",
"l. c #6CB64A",
"z. c #6DB64A",
"x. c #6CB74A",
"c. c #6CB64B",
"v. c #6CB74B",
"b. c #6DB74B",
"n. c #6EB74B",
"m. c #6EB74C",
"M. c #6FB74C",
"N. c #68B94B",
"B. c #69B94B",
"V. c #6AB94B",
"C. c #6ABA4B",
"Z. c #6CB84A",
"A. c #6DB84B",
"S. c #6DB94B",
"D. c #6EB84B",
"F. c #6FB84C",
"G. c #94C152",
"H. c #95C152",
"J. c #94C252",
"K. c #95C252",
"L. c #94C352",
"P. c #97C252",
"I. c #96C352",
"U. c #97C352",
"Y. c #97C353",
"T. c #95C452",
"R. c #96C452",
"E. c #97C452",
"W. c #97C552",
"Q. c #97C453",
"!. c #97C553",
"~. c #98C352",
"^. c #98C353",
"/. c #99C353",
"(. c #98C452",
"). c #99C452",
"_. c #98C552",
"`. c #99C552",
"'. c #98C453",
"]. c #99C453",
"[. c #98C553",
"{. c #99C553",
"}. c #9AC552",
"|. c #9AC453",
" X c #9AC553",
".X c #99C653",
"XX c #9AC653",
"oX c #9BC653",
"OX c #9AC753",
"+X c #9CC653",
"@X c #9CC753",
"#X c #9DC753",
"$X c #9AC654",
"%X c #9AC754",
"&X c #9BC754",
"*X c #9CC754",
"=X c #9DC754",
"-X c #9EC754",
";X c #9DC853",
":X c #9BC854",
">X c #9DC854",
",X c #9EC854",
"<X c #9EC954",
"1X c #9ECA55",
"2X c #9FCA55",
"3X c #A0CB55",
/* pixels */
"y.y.y.y.y.t.y.;.5 = , > , > > > > , > > > ,   z ).=X@X=X#X@X=X`.k.4.y.y.y.t.5.;.2 @ , > > > > , > > > > , , o x {.=X@X#X#X#X=X#X",
"B.B.B.B.B.B.C.d.p w r r r r r r r r r r r y ; M &X3X1X2X2X1X3X:XS.N.V.B.B.B.C.w.u e r r r r r r r r r r r r ; c  X3X1X2X2X2X2X2X",
"5.5.5.5.5.5.6.8.7 % & & % & & & & % & % & : X c '.;X@X@X@X@X#X{.x.4.5.5.5.5.y.<.5 % & & & & & % & & & % % : # z {.,X+X@X@X@X@X@X",
"d.d.t.5.t.5.f.<.5 = > > > > > > > > > > > > X f ).=X+X*X*X@X=X.Xv.5.d.t.d.5.f.>.7 = > > > > > > > > > > > > O l ].>X+X*X*X*X*X*X",
"w.t.t.5.t.5.f.<.5 @ > > > > > > > > > > > > X f ).=X+X*X*X@X=X.Xv.5.d.d.t.5.f.>.7 = > > > > > > > > > > > > O l ].>X+X*X*X*X*X*X",
"d.t.t.5.d.5.f.<.8 = > > > > > > > > > > > > X f ).=X+X@X*X+X=X.Xv.5.d.t.t.5.f.>.7 = > > > > > > > > > > > , * l /.>XoX+X@X@X@X@X",
"w.t.t.5.t.5.f.<.4 @ > = = = = = = = = = = > X f }.,X*X=X=X*X=XOXv.4.d.t.t.5.f.>.5 @ = = = = = = * $ * $ * = . k |.,X*X=X=X=X=X=X",
"d.t.d.5.t.5.f.<.9 > < < < < < < < < < < < < = m '.@X&X&X&X&X@X[.v.5.t.t.t.5.f.>.9 < 4 4 4 4 4 4 g h h h h h t V Y.&XXXXXXXXXXXXX",
"d.d.t.5.t.5.d.3.E R E E E E E E E E E E E E R ^ n.F.M.F.F.F.F.m.f.5.t.t.d.t.d.5.<.;.;.;.;.;.=.s.K.Y.Y.^.^.Y.Y.H.*.O.$.#.#.#.#.#.",
"w.t.t.5.t.5.d.5.( ^ ( ( ( ( ( ( ( ( ( ( ( ( ( ' ,.4.4.4.4.4.4.4.5.t.t.d.t.t.5.d.f.f.f.f.f.f.e.A.:X,X>X>X,X>X<XXX[ S J G G G G G ",
"d.t.t.5.d.5.d.5.L K K K K K K K K K K K K K K L 5.d.d.d.d.d.d.d.t.t.t.t.t.t.t.5.5.5.5.5.5.t.4.c..X*XoX+X+XoX*X{...H ^ ^ I ^ ^ ^ ",
"w.t.t.5.t.5.d.5.Y K K K K K K K K K K K K K K L 5.d.5.5.d.t.t.t.t.d.t.t.t.t.d.t.t.t.t.5.t.d.4.b.XX=X@X*X*X@X=X X .G ^ K K K K K ",
"d.t.d.5.t.5.d.5.Y K K K K K K K K K K K K K K L 5.d.5.5.t.t.t.t.d.t.t.t.t.d.t.t.t.t.d.5.t.d.4.b.XX=X@X*X*X@X=X X .G ^ K K K K ! ",
"d.d.t.5.t.5.d.5.Y I I ^ I ^ ^ I K K K K K K K L 3.d.5.5.w.w.5.w.5.t.t.t.d.t.t.5.5.5.5.5.5.t.4.b..X=X+X@X@X+X=X X .G ^ K K K K ! ",
"w.t.t.5.t.5.d.5.K K K K K K K K K K K K K K K L 5.y.t.t.t.t.t.t.t.5.5.d.t.5.5.t.f.f.f.f.f.f.e.b.%X>X*X=X=X*X>X{. .G ^ K K K K K ",
"d.t.t.5.d.t.d.5.{ ` ` ` ` ` ` ` I K K K K K K L q.w.0.0.0.0.0.0.5.5.5.t.t.5.t.6.9.9.9.9.9.9.8.l._.&XXX$X$XXX&X'. .G ^ K K K K ! ",
"w.t.t.5.t.d.4.k.I.{.'.].].'.{.K.[ J ^ K K K ^ W j p p p p p i n <.d.5.t.t.5.f.>.q 7 9 9 9 9 7 b z.D.D.D.D.D.D.b.Y K K K K K K K ",
"d.t.d.5.t.d.4.Z.XX,X>X>X>X=X,XoX .G ^ K K K ^ G : O + + + + O 3 <.f.5.t.t.5.f.>.1 @ = = = = @ 4 7.e.4.4.4.4.4.2.P K K K K K K ! ",
"d.d.t.5.t.d.4.Z.XX*XoX+X+XoX=X`.} G ^ K K K ^ G 4 = > > > , = 5 <.f.5.t.d.5.f.>.7 = > > > > = 9 9.f.t.d.d.t.d.5.Y K K K K K K ! ",
"w.t.t.5.t.d.4.Z.XX=X@X*X*X+X=X`.} G ^ K K K ^ G 1 = > > > > @ 5 <.f.5.5.t.5.f.>.6 = > > > > = 7 9.f.5.5.t.5.d.5.Y K K K K K K K ",
"d.t.t.5.d.d.4.Z.XX=X@X*X*X+X=X`. .G ^ K K K ^ G 1 = > > > > = 5 <.f.5.5.t.5.f.>.6 = > > > > = 7 9.f.5.5.t.5.d.5.Y K K K K K K ! ",
"5.5.5.5.5.t.4.Z.XX=X+X+X+X+X=X`.} G I K K K ^ G 1 = > > > > @ 5 ;.d.5.5.5.5.f.>.4 = > > > > = 7 8.f.5.5.5.5.d.5.Y K K K K K K K ",
"f.f.f.f.f.f.5.x.XX,X=X=X=X=X,XXX .J ^ ^ ^ ^ ( G 1 = > > > > + 5 <.f.d.f.f.d.f.8.7 = > > > > = 7 9.f.d.d.d.d.f.3.( ! ^ ^ ^ ^ ^ ^ ",
"9.0.9.9.0.0.8.s.Q.$X{.XXXX{. XU.X.E ^ ^ ^ Q ^ F 4 = > > > > + 4 :.0.9.9.9.9.2.=.4 = > > > > = 7 1.d.0.0.0.0.i.0.( ^ ( ( ( ( ( ( ",
"u u u u u u u i v N N N N N v B W ( ! ^ ^ ! ( E 4 = > > > > = > y u u u u u u y > = > > > > = 5 ! ' ' ' ' ' ( ' 9.0.0.0.0.0.0.0.",
"@ @ @ @ @ @ @ @ X X X X X X   - G ( ^ ^ ^ ^ ( G 4 = > > > > > = @ @ @ @ @ @ @ @ > > > > > > = 4 H ^ ! ^ ^ ^ ^ ( 3.f.d.d.d.d.d.d.",
"> > > > > > > > > > > > > , > 6 G I K K K K I F 4 = > > > > > > > > > > > > > > > > > > > > = 4 G ^ K K K K K ( 3.d.5.5.5.5.5.5.",
"> > > > > > > > > > > > > > = 4 G ^ K K K K ^ G 4 = > > > > > > > > > > > > > > > > > > > > = 4 G ^ K K K ^ K ( 3.d.t.t.t.t.d.d.",
"> > > > > > > > > > > > > > = 4 G ^ K K K K ^ F 4 = > > > > > > > > > > > > > > > > > > > > = 4 G ^ K K K ^ K ( 3.d.5.t.t.d.t.d.",
"> > > > > > > > > > > > > > = 4 G ^ K K K K ^ G 4 = > > > > > > > > > > > > > > > > > > > > = 4 H ^ ^ ^ ^ ^ I ( 3.d.5.t.t.t.t.5.",
"= = = > = > > = = = = = = = @ 4 G ^ K K K K ^ F < + = = = = = = = = = = = = = = = = = = = = + 4 F K H K K K H K 3.d.d.d.d.d.d.d.",
"> > > > > > > > , < < < < < , 7 G ^ K K K K ^ G 7 4 4 4 4 4 4 4 4 4 4 4 4 4 4 4 < < < < < < , 7 / [ ` ` ` ` ` [ 1.5.3.3.3.3.3.3.",
"> > > > > > = 4 Z F F F F F F F K ^ K K K K K ( =.;.;.;.;.;.;.;.;.;.;.;.;.;.;.=.G F F F F F C ) K.'.(.(.(.E.{.J.{ ~ ( ( ( ( ( ( ",
"= = = > = > = 4 H ( ^ ^ ^ ^ ^ ^ ^ K K K K ^ K ( d.f.f.f.f.f.f.f.f.f.f.f.f.f.f.t.( ^ ^ ^ ^ ( J o.XX,X=X=X=X=X,X{.` G I K K K K K ",
"> > > > > > = 4 G ^ K K K K K K K K K K K ! K ( 3.w.5.5.5.5.5.5.5.5.5.5.5.5.w.3.( K K K K ^ G | {.=X+X@X@X+X=X'.[ K ^ K ! K ^ ^ ",
"> > > > > > = 4 H ^ K K K K K K K K K K K ! K ( 3.d.t.t.t.d.t.t.t.t.d.t.t.5.d.3.( K ! K K ^ G | {.=X@X*X*X@X=X'.[ G ^ K K K K ! ",
"> > > > > > = 4 H ^ K K K K K K K K K K K K K ( 3.d.t.t.d.t.t.t.t.d.t.t.t.t.d.3.( K ! K K ^ G | {.=X@X*X*X@X=X'.[ G ^ K K K K K ",
"> > > > > > = 4 G ^ K K K K K K K K K K K K K ( 3.d.t.d.t.t.t.t.d.d.d.d.d.d.d.3.( K ^ K K ^ G | {.=X+X@X@X+X=X'.[ K ^ ^ ^ ^ ^ ^ ",
"= = = = = = + 4 H ( ^ ^ ^ ^ ^ I ^ ^ ^ ^ I ^ I ( 3.d.t.t.t.t.t.5.5.5.5.5.5.5.5.3.( K K K K ^ G |  X=X*X=X=X*X,X{._ G K K K K K K ",
"3 < , < < < , 7 F H H H H H H H H H H H H H H ! 3.d.t.t.t.t.w.d.g.g.g.g.g.g.j.p.( K ^ K K ^ G } E.oX XXX X XoXI.+._ [ ` ` ` ` ` ",
"T W G F F F F Z 0 4 6 6 6 6 6 6 6 6 6 6 6 7 4 q <.f.5.t.t.d.4.x.T.[.!.[.[.W.[.L.[ K ^ K K K K ^ +.+.+.+.+.@.+.%.J.].(.(.(.(.(.(.",
"( ] U ^ ^ ^ ( H < + = = = = = = = = = = = = + 4 <.f.5.t.d.d.4.x.XX-X=X=X=X=X,X{.[ G ^ K K K K K G G G G G G D _ {.,X=X=X=X=X=X=X",
"^ ( K K K K ^ G 4 = > > > > > > > > > > > , = 5 <.f.5.d.t.d.4.x.{.*X@X@X@X+X=X'.[ G ^ K K K K ! ^ ^ ^ ^ ^ ^ K } '.=X+X@X@X@X@X@X",
"( ( L K K K ^ G 4 = > > > > > > > > > > > > @ 5 <.f.5.t.t.d.4.x.{.=X@X*X*X@X=X'.[ G ^ K K K K K K K K K K ^ G [ '.=X@X*X*X*X*X*X",
"( ( L K K K ^ G 4 = > > > > > > > > > > > > @ 5 <.f.5.t.t.d.4.x.{.=X@X*X*X@X=X'.[ G ^ K K K K K K K K K K ^ G [ '.=X@X*X*X*X*X*X",
"^ ( L K K K ^ G 6 > , > > > > > > > > > > , = 5 <.f.5.t.t.d.4.x.{.=X@X@X@X+X=X'.} K ^ ^ ^ ^ ^ ^ K ! K K K ^ J [ '.=X+X@X@X@X@X*X",
"( ( K K K K ^ G , O O O O O O O = = = = = = + 4 <.f.5.d.d.d.4.x.XX=X*X=X=X*X,X{.` G K K K K K K K K K K K ^ G [ {.>X*X=X=X=X=X=X",
"( ' L ( ( ^ ( H d a s s s s s a 4 4 4 4 4 4 , 0 ;.t.3.3.3.r.2.l.E.oX X X X XoXU.+._ [ ` ` ` ` _ ( ( ( ( ( ( K [ I.oX X X X X X X",
"3.3.3.3.3.3.<.s.G.U.U.U.U.P.~.G.u.-.;.;.;.;.;.=.' ( ( ( ( ( ( ( +.@.+.+.+.@.o.&.K.'.(.(.(.E.].L.a.2.3.3.3.3.3.1.#.+.+.+.+.+.+.+.",
"d.d.d.d.d.d.4.x.XX,X>X>X>X>X,XXXZ.5.f.f.f.f.f.t.( H K K K K K K G G G G G G A [  X,X=X=X=X=X,X.Xk.5.d.d.d.d.f.3.J G G G G G G G ",
"5.5.5.5.5.d.4.x.{.*XoX+X+XoX=X[.k.4.d.5.5.5.w.3.( K ^ K K ! K ^ ^ ^ ^ ^ ^ ^ K | {.=X+X@X@X+X=X[.k.5.d.t.5.5.d.3.( ^ ^ ^ ^ ^ ^ ^ ",
"w.d.t.d.t.d.4.x.{.=X@X*X*X@X=X{.k.5.d.t.t.5.d.3.( K ! K K K K K K K K K K ^ G | {.=X@X*X*X@X=X[.k.5.d.t.t.5.d.3.( K ! K K K K K ",
"d.t.d.t.t.d.4.x.{.=X@X*X*X@X=X{.k.4.d.t.t.t.d.3.( K K K K K K K K K K K K ^ G | {.=X@X*X*X@X=X[.k.5.d.t.d.t.d.3.( K ! K K K K ! ",
"d.d.t.t.t.d.4.x.{.=X@X@X@X@X=X{.k.4.d.t.t.5.d.3.( K K K K K K K K K K K K ^ G | {.=X+X@X@X+X=X[.k.5.d.d.t.5.d.3.( K ! K K K K ! ",
"w.t.t.t.t.d.4.x..X=X*X=X=X*X=X.Xk.5.d.d.d.d.d.3.( I ^ ^ ^ I ^ ^ K K K K K ^ G |  X=X*X=X=X*X=X{.k.5.d.t.t.5.d.3.( K ! K K K K K ",
"d.t.t.t.d.d.4.k.E.oX X X X XoXE.h.2.r.3.3.3.5.1.! H H H H H H H K K K K K ^ G } E.oX X X X XoXR.k.5.d.t.t.t.d.3.( K ! K K K K ! ",
"w.t.t.d.t.t.w.r.#.+.+.+.+.+.@.+.( ( ( ( ( ( ' ! 0 4 6 6 6 6 4 0 H ^ K K K K K ^ +.@.+.+.+.+.+.#.r.w.t.t.t.5.d.3.( K ! K K K K K ",
"d.t.d.t.t.t.d.3.J G G G G G G G K K K K K K I F < + = = = = + 4 G ^ K K K K K K G G G G G G G J 3.d.t.t.d.t.d.3.( K ! K K K K ! ",
"d.d.t.t.t.t.d.3.( ^ ^ ^ ^ ^ ^ ^ ^ K K K K K ^ G 4 = > > > > = 4 H ^ K K K K K K ^ ^ ^ ^ ^ ^ ^ ( 3.d.t.d.t.5.d.3.( K ! K K K K ! ",
"w.t.t.t.t.5.d.3.( K ! K K K K K K K K K K K ^ G 4 = > > > > = 4 H ^ K K K K K K K K K K K ! K ( 3.d.t.t.t.5.d.3.( K ! K K K K K ",
"d.t.t.t.d.t.d.3.( K ! K K K K K K K K K K K ^ G 4 = > > > > = 4 H ^ K K K K K K K K K K K ! K ( 3.d.t.t.t.t.d.3.( K ! K K K K ! ",
"w.t.t.d.t.5.d.3.( K ! K K K K K K K K K K K ^ G 4 = > > > > = 4 H ^ K K K K K K K K K K K ! K ( 3.d.t.t.t.5.d.3.( K ! K K K K K ",
"w.t.d.t.t.5.d.3.( K ^ K K K K K K K K K K K ^ G 4 = > > > > = 4 H ^ K K K K K K K K K K K ^ K ( 3.d.t.t.d.t.d.3.( K ^ K K K K ! ",
"w.d.t.t.t.5.d.3.( K K ! K K K K K K K K K K ^ G 4 = > > > > = 4 H ^ K K K K K K K K K K K K K ( 3.d.5.d.t.5.d.3.( K K K K ! K ! "
};
