/* XPM */
static char *result[] = {
/* columns rows colors chars-per-pixel */
"64 64 166 2 ",
"   c black",
".  c #010101",
"X  c #020202",
"o  c #040404",
"O  c gray2",
"+  c #070707",
"@  c gray3",
"#  c #090909",
"$  c gray4",
"%  c #0C0C0C",
"&  c gray5",
"*  c #0E0E0E",
"=  c gray6",
"-  c #101010",
";  c #131313",
":  c gray9",
">  c #181818",
",  c #191919",
"<  c gray10",
"1  c #1D1D1D",
"2  c gray12",
"3  c #222222",
"4  c #232323",
"5  c gray14",
"6  c #252525",
"7  c gray15",
"8  c #272727",
"9  c #282828",
"0  c gray16",
"q  c #2A2A2A",
"w  c gray17",
"e  c #2C2C2C",
"r  c #2D2D2D",
"t  c gray18",
"y  c #2F2F2F",
"u  c gray19",
"i  c #313131",
"p  c #323232",
"a  c gray20",
"s  c #343434",
"d  c #353535",
"f  c gray21",
"g  c #373737",
"h  c gray22",
"j  c #393939",
"k  c #3A3A3A",
"l  c gray23",
"z  c #3C3C3C",
"x  c gray24",
"c  c #3E3E3E",
"v  c #3F3F3F",
"b  c gray25",
"n  c #414141",
"m  c gray26",
"M  c #434343",
"N  c #444444",
"B  c gray27",
"V  c #464646",
"C  c gray28",
"Z  c #484848",
"A  c #494949",
"S  c gray29",
"D  c #4B4B4B",
"F  c gray30",
"G  c gray31",
"H  c #515151",
"J  c gray32",
"K  c #535353",
"L  c #555555",
"P  c #565656",
"I  c gray34",
"U  c #585858",
"Y  c gray35",
"T  c #5B5B5B",
"R  c gray36",
"E  c #5D5D5D",
"W  c gray37",
"Q  c #606060",
"!  c gray38",
"~  c #626262",
"^  c gray39",
"/  c #646464",
"(  c #686868",
")  c DimGray",
"_  c #6A6A6A",
"`  c gray42",
"'  c #6C6C6C",
"]  c #6D6D6D",
"[  c gray43",
"{  c #6F6F6F",
"}  c gray44",
"|  c #717171",
" . c #727272",
".. c gray45",
"X. c #747474",
"o. c gray46",
"O. c #767676",
"+. c #777777",
"@. c gray47",
"#. c #797979",
"$. c gray48",
"%. c #7B7B7B",
"&. c #7C7C7C",
"*. c gray49",
"=. c #7E7E7E",
"-. c gray50",
";. c #808080",
":. c #818181",
">. c gray51",
",. c #838383",
"<. c #848484",
"1. c #868686",
"2. c gray53",
"3. c gray54",
"4. c #8B8B8B",
"5. c gray55",
"6. c #8D8D8D",
"7. c #8E8E8E",
"8. c gray56",
"9. c #909090",
"0. c gray57",
"q. c #929292",
"w. c gray60",
"e. c #9A9A9A",
"r. c #A7A7A7",
"t. c gray66",
"y. c #AAAAAA",
"u. c #B7B7B7",
"i. c #B9B9B9",
"p. c #BBBBBB",
"a. c #CACACA",
"s. c gray80",
"d. c #CECECE",
"f. c gray84",
"g. c #D8D8D8",
"h. c gray85",
"j. c gray86",
"k. c gainsboro",
"l. c gray87",
"z. c #E2E2E2",
"x. c gray89",
"c. c #E4E4E4",
"v. c gray90",
"b. c #E6E6E6",
"n. c #E7E7E7",
"m. c gray91",
"M. c #E9E9E9",
"N. c #EAEAEA",
"B. c gray92",
"V. c #EEEEEE",
"C. c #F1F1F1",
"Z. c gray95",
"A. c #F3F3F3",
"S. c #F4F4F4",
"D. c gray96",
"F. c #F6F6F6",
"G. c gray97",
"H. c #F8F8F8",
"J. c #F9F9F9",
"K. c gray98",
"L. c #FBFBFB",
"P. c gray99",
"I. c #FDFDFD",
"U. c #FEFEFE",
"Y. c white",
"T. c None",
/* pixels */
"T.T.T.T.T.T.T.T.T.T.T.T.T.T.T.T.T.T.T.T.T.T.T.T.T.T.T.T.T.T.T.T.T.T.T.T.T.T.T.T.T.T.T.T.T.T.T.T.T.T.T.T.T.T.T.T.T.T.T.T.T.T.T.T.",
";.4.;.:.;.:.;.;.;.:.-.-.:.;.;.;.:.:.;.:.;.-.;.:.;.:.;.:.;.;.:.;.-.:.;.:.;.;.;.;.:.;.-.;.:.;.:.;.;.;.;.:.;.-.:.;.;.;.:.;.:.:.3.;.",
"n.L.n.m.n.m.m.m.n.m.c.v.m.n.m.n.m.m.n.m.n.x.n.m.n.m.n.m.m.n.m.v.c.m.n.m.n.m.m.n.m.n.x.n.m.n.m.m.m.n.n.m.v.x.M.n.m.m.m.n.m.n.J.z.",
"R / R R E E E E E R R R R E E E E E E E E T E E E E E E E E R R R R E E E E E E E E T E E E E E E E E E R T R E E E E E R E ^ R ",
"                                                                                                                                ",
"b V b b b b b b b b b b b b b b b b b b b b b b b b b b b b b b b b b b b b b b b b b b b b b b b b b b v b b b b b b b b n B b ",
"p f i p p p p p p p p p p p p p p p p p p p p p p p p p p p p p p p p p p p p p p p p p p p p p p p p p i p p p p p p p p i d p ",
"a g a a a a a a a a a a a a a a a a a a a a a a a a a a a a a a a a a a a a a a a a a a a a a a a a a a a a a a a a a a a a g s ",
"a g a a a a a a a a a a a a a a a a a a a a a a a a a a a a a a a a a a a a a a a a a a a a a a a a a a p a a a a a a a a a g p ",
"a g a a a a a a a a a a a a a a a a a a a a a a a a a a a a a a a a a a a a a a a a a a a a a a a a a a p a a a a a a a a a g p ",
"a g a a a a a a a a a a a a a a a a a a a a a a a a a a a a a a a a a a a a a a a a a a a a a a a a a a p a a a a a a a a a g p ",
"a g a a a a a a a a a a a a a a a a a a a a a a a a a a a a a a a a a a a a a a a a a a a a a a a a a a p a a a a a a a a a g p ",
"a h a a a a a a a a a s a a a a a a a a a a a a a a a a a a a a a a a a a a a a a a a a a a a a a a a a p a a a a a a a a a g p ",
"p s u u u a a a a a a i u u u i a a a a a p u u u u p a a a a a i u u u i a a a a a p u u u u p a a a a p i u u u i a a a a g p ",
"m C n m n d p a a a d n n n m z p a a a i k m n n n f p a a p s b m n m x p a a a p j m n n m g p a a a a v m b m c p a a a g p ",
"          w d a p d t           d a a p g $         7 f p p d u           d a a p f >         4 f p a a a           d a a a g p ",
"8.e.6.8.6.Z w s d e M 4.8.5.q.O.0 a s h 1 ' 0.5.7.6.K 5 g f e v 2.9.5.0.&.q s d d 5 / q.5.6.9.U 3 g p p a <.0.4.0.=.e s a a g p ",
"J.Y.J.L.G.{   f z $ ! A.P.F.Y.s.  a d N   i.Y.G.L.J.1.  n c @ L B.U.F.Y.g.  f j k   t.Y.G.J.I.9.  M i r f b.Y.D.Y.k.X f p a g p ",
"} @.{ } [ v y a s u z ] } ]  .E t a a f 0 I | [ { { V e d d y k _ | ] | ~ t a s s w H  .[ { } A w d a p a ( | ]  ./ y a a a g p ",
"          t s a p s u         : s a a p f 2         w d p p s i         - s a a a d 5         0 d p a a a .       % s a a a g p ",
"c M c c x d p a a a s x c x c k p a a a p h c x c x f p a a a s z c x c l p a a a p g c x x c f p a a a a z c x c l a a a a g p ",
"p d i i i a a a a a a i i i i p a a a a a p i i i i a a a a a a p i i i p a a a a a p i i i i p a a a a p i i i i i a a a a g p ",
"a h a a a a a a a a a a a a a a a a a a a a a a a a a a a a a a a a a a a a a a a a a a a a a a a a a a p a a a a a a a a a g p ",
"a g a a a a a a a a a a a a a a a a a a a a a a a a a a a a a a a a a a a a a a a a a a a a a a a a a a p a a a a a a a a a g p ",
"a g a a a a a a a a a a a a a a a a a a a a a a a a a a a a a a a a a a a a a a a a a a a a a a a a a a p a a a a a a a a a g p ",
"a g a a a a a a a a a a a a a a a a a a a a a a a a a a a a a a a a a a a a a a a a a a a a a a a a a a p a a a a a a a a a g p ",
"a g a a a a a a a a a a a a a a a a a a a a a a a a a a a a a a a a a a a a a a a a a a a a a a a a a a p a a a a a a a a a g p ",
"a g a a a a a a a a a a a a a a a a a a a a a a a a a a a a a a a a a a a a a a a a a a a a a a a a a a p a a a a a a a a a g p ",
"a f p p p a a a a a a p p p p p a a a a a a p p p p a a a a a a p p p p p a a a a a a p p p p a a a a a p p p p p p a a a a g p ",
"m Z m m m d p a a a d m m m M x p a a a i l M m m m g p a a p s b M m M c p a a a p j M m m M g p a a a a b M n M v p a a a g p ",
"          q d a p d r           f a a i h           4 g p p d y           d a p p g =         2 g i a a a           d a a a g p ",
"6.w.6.7.5.Z w s d e M 4.7.4.q.o.0 a s h 1 ` 0.5.7.6.J 5 g f e v 1.9.4.9.%.q s d d 5 ^ 0.5.6.8.I 3 g p p a ,.9.4.0.=.e s a a g p ",
"I.Y.P.Y.K.}   f z + ! F.Y.J.Y.d.  a d B   p.Y.K.U.P.2.  n c O P V.Y.J.Y.j.  f j k   y.Y.K.P.Y.q.  M i r f M.Y.H.Y.l.  f p a g p ",
";.4.;.:.-.N r s d t v *.:.=.<._ w a a g 4 ~ ,.-.;.-.F 9 f d t z #.>.=.,.} e s s s 9 T ,.-.-.:.H 8 f a p a +.,.*.,. .r s a a g p ",
"          e d a p d t           d a a p g *         8 f p p d u           d a a p f <         5 f p a a a           d a a a g p ",
"x n x x z s a a a a s z z z x j p a a a p h x z z z d p a a a s l x z x k a a a a p g x z z z f p a a a p l x z x k a a a a g p ",
"a g p a a a a a a a a a a a a a a a a a a a a a a a a a a a a a a a a a a a a a a a a a a a a a a a a a p a a a a a a a a a g p ",
"a g a a a a a a a a a a a a a a a a a a a a a a a a a a a a a a a a a a a a a a a a a a a a a a a a a a p a a a a a a a a a g p ",
"a g a a a a a a a a a a a a a a a a a a a a a a a a a a a a a a a a a a a a a a a a a a a a a a a a a a p a a a a a a a a a g p ",
"a g a a a a a a a a a a a a a a a a a a a a a a a a a a a a a a a a a a a a a a a a a a a a a a a a a a p a a a a a a a a a g p ",
"a g a a a a a a a a a a a a a a a a a a a a a a a a a a a a a a a a a a a a a a a a a a a a a a a a a a p a a a a a a a a a g p ",
"a g a a a a a a a a a a a a a a a a a a a a a a a a a a a a a a a a a a a a a a a a a a a a a a a a a a p a a a a a a a a a g p ",
"a g a a a a a a a a a a a a a a a a a a a a a a a a a a a a a a a a a a a a a a a a a a a a a a a a a a p a a a a a a a a a g p ",
"p f p p p a a a a a a p p p p p a a a a a p p p p p a a a a a a p p p p p a a a a a a p p p p a a a a a p p p p p p a a a a g p ",
"l c k k j s a a a a s j k j k g a a a a p f k j j j s p a a a s j k j k h a a a a p f k j j k d p a a a p h k j k h a a a a g p ",
"          t s a p s u         ; s a a p f 1         q d p p s i         # s a a a d 3         9 d p a a a         o s a a a g p ",
"#.>.+.#.+.m t s s y c o.#.O.%./ r a a f 7 E $.+.@.+.A q f d y l  .$.O.$.) r s s s q P %.+.+.#.F 0 f a p a } $.O.%.` t a a a g p ",
"H.Y.F.J.D.[ . f z & Q C.J.A.Y.a.  a d N   u.I.S.H.F.<.  n c $ L M.L.A.I.f.  f j k   r.U.D.F.K.8.  m i r f c.P.Z.I.h.O f p a g p ",
"*.2.%.*.%.M r s d t v #.*.$.;.( e a a g 6 Q -.%.*.&.D 0 f d t z O.=.$.-.] r s s s 0 Y -.%.&.=.G 9 f a p a X.-.$.-.{ t a a a g p ",
"          e d a p d t           d a a p g *         8 f p p d u           d a a p f ,         5 f p a a a           d a a a g p ",
"N S N N N f p a a p d M N M B c p a a a i z B N N N g p a a p d m B M B v p a a a p k B N N N h i a a a a n B M B b p a a a g p ",
"p s u u u a a a a a a i u u u i a a a a a p u u u u p a a a a a i u u u i a a a a a p u u u u p a a a a p i u u u i a a a a g p ",
"a h a a a a a a a a a a a a a a a a a a a a a a a a a a a a a a a a a a a a a a a a a a a a a a a a a a p a a a a a a a a a g p ",
"a g a a a a a a a a a a a a a a a a a a a a a a a a a a a a a a a a a a a a a a a a a a a a a a a a a a p a a a a a a a a a g p ",
"a g a a a a a a a a a a a a a a a a a a a a a a a a a a a a a a a a a a a a a a a a a a a a a a a a a a p a a a a a a a a a g p ",
"a g a a a a a a a a a a a a a a a a a a a a a a a a a a a a a a a a a a a a a a a a a a a a a a a a a a p a a a a a a a a a g p ",
"a g a a a a a a a a a a a a a a a a a a a a a a a a a a a a a a a a a a a a a a a a a a a a a a a a a a p a a a a a a a a a g p ",
"a g a a a a a a a a a a a a a a a a a a a a a a a a a a a a a a a a a a a a a a a a a a a a a a a a a a a a a a a a a a a a g s ",
"p d i i i i i i i i i i i i i i i i i i i i i i i i i i i i i i i i i i i i i i i i i i i i i i i i i i i i i i i i i i i i d i ",
"m V n n n n n n n n n n n n n n n n n n n b n n n n n n n n n n n n n n n n n n n n b n n n n n n n n n n b n n n n n n n n V n ",
"                                                                                                                                ",
"W / E E R E R E R E T R E R R R R E R E R T R E E R E R E R E R T E R E R E R E E R T R E R E E E R E E R R E R E R E E E R ^ T ",
"B.U.N.B.N.N.N.N.N.B.n.n.B.N.N.N.N.N.N.B.N.b.N.N.N.N.N.N.N.N.B.m.m.B.N.N.N.N.N.N.N.N.b.N.B.N.N.N.N.N.N.B.M.n.B.N.N.N.N.N.B.B.L.b.",
"o.-.o.o.o.o.o.o.X.o...X.o.o.o.o.o.o.o.o.o...o.o.o.o.o.o.o.o.o.X.X.o.o.o.o.o.o.o.o.o...o.o.o.o.o.o.o.o.o.X.X.o.X.o.o.o.o.o.o.*.X."
};
