/* XPM */
static char *result[] = {
/* columns rows colors chars-per-pixel */
"64 64 238 2 ",
"   c #020101",
".  c #0C0603",
"X  c #130001",
"o  c #150E05",
"O  c #150D08",
"+  c #191107",
"@  c #1C140A",
"#  c #161008",
"$  c #020D16",
"%  c #041418",
"&  c #1E1912",
"*  c #191819",
"=  c #130C11",
"-  c #260400",
";  c #27190A",
":  c #331A04",
">  c #221A13",
",  c #281C16",
"<  c #33220F",
"1  c #39230C",
"2  c #2A231B",
"3  c #352412",
"4  c #3A2413",
"5  c #3B2C1C",
"6  c #3B2716",
"7  c #2E210C",
"8  c #1B1B24",
"9  c #0B102D",
"0  c #221F22",
"q  c #06292C",
"w  c #1A2828",
"e  c #033539",
"r  c #072D32",
"t  c #242324",
"y  c #2B2A2D",
"u  c #272627",
"i  c #3C2D23",
"p  c #382A29",
"a  c #3C3127",
"s  c #2D2E33",
"d  c #252930",
"f  c #342C32",
"g  c #2F3734",
"h  c #33353B",
"j  c #3B3A3D",
"k  c #363536",
"l  c #2B332D",
"z  c #462C1A",
"x  c #4E2F14",
"c  c #462E22",
"v  c #473327",
"b  c #563827",
"n  c #423835",
"m  c #543C31",
"M  c #633D29",
"N  c #594439",
"B  c #53402D",
"V  c #6A422E",
"C  c #684737",
"Z  c #754A34",
"A  c #76462D",
"S  c #040946",
"D  c #0A1054",
"F  c #023D41",
"G  c #3B3C43",
"H  c #271366",
"J  c #453643",
"K  c #18474A",
"L  c #034E55",
"P  c #0A5256",
"I  c #2E484A",
"U  c #065C63",
"Y  c #155171",
"T  c #01656C",
"R  c #026C77",
"E  c #017376",
"W  c #007479",
"Q  c #067579",
"!  c #156D70",
"~  c #2B6B6E",
"^  c #34605E",
"/  c #444449",
"(  c #4B4C53",
")  c #4A4C55",
"_  c #52535A",
"`  c #5A585B",
"'  c #50514D",
"]  c #7B5647",
"[  c #6D524C",
"{  c #595B63",
"}  c #5F636D",
"|  c #666468",
" . c #676A75",
".. c #717177",
"X. c #636459",
"o. c #885439",
"O. c #965A3B",
"+. c #804E36",
"@. c #A0613E",
"#. c #835945",
"$. c #9A5E43",
"%. c #955D42",
"&. c #825F52",
"*. c #9D6145",
"=. c #9B624A",
"-. c #966549",
";. c #896659",
":. c #976855",
">. c #8B624D",
",. c #A26346",
"<. c #A46649",
"1. c #A56A4C",
"2. c #AC6A4B",
"3. c #A86749",
"4. c #B16D4D",
"5. c #A6725A",
"6. c #B47354",
"7. c #BC7554",
"8. c #B87858",
"9. c #AE704F",
"0. c #8B6D64",
"q. c #836B66",
"w. c #947265",
"e. c #A87B67",
"r. c #A57E73",
"t. c #C47B57",
"y. c #BC8469",
"u. c #AD8676",
"i. c #D48A67",
"p. c #C38B72",
"a. c #CC917B",
"s. c #D5947B",
"d. c #CA8464",
"f. c #E6987A",
"g. c #DF976E",
"h. c #370F89",
"j. c #3A2491",
"k. c #3C2AA1",
"l. c #4D3BB8",
"z. c #462DAA",
"x. c #421DA6",
"c. c #2D4E98",
"v. c #017C83",
"b. c #027B88",
"n. c #2B7195",
"m. c #1B7FA1",
"M. c #757985",
"N. c #5140BD",
"B. c #4C44B6",
"V. c #356DCD",
"C. c #006AE5",
"Z. c #0071DC",
"A. c #5443C4",
"S. c #5645CA",
"D. c #5846CD",
"F. c #574ACB",
"G. c #5D4AD4",
"H. c #6552CF",
"J. c #01858B",
"K. c #008A8D",
"L. c #028286",
"P. c #008593",
"I. c #008D92",
"U. c #008D9B",
"Y. c #0A8C95",
"T. c #009295",
"R. c #02959B",
"E. c #16868E",
"W. c #178DA2",
"Q. c #0398A6",
"!. c #1496A7",
"~. c #2A92AA",
"^. c #02A4A6",
"/. c #03A4AC",
"(. c #04A9AB",
"). c #01ADB3",
"_. c #00BABE",
"`. c #00B3B8",
"'. c #16ACB1",
"]. c #2D9C9E",
"[. c #7D828F",
"{. c #70B9B1",
"}. c #00BDC2",
"|. c #07B9C2",
" X c #10B9C2",
".X c #2BBBC2",
"XX c #4F8AEC",
"oX c #01C1C5",
"OX c #00C6CA",
"+X c #00CACD",
"@X c #08C6C5",
"#X c #01CDD1",
"$X c #00D2D5",
"%X c #00D5D9",
"&X c #00DADE",
"*X c #16C8D0",
"=X c #35C3C5",
"-X c #00DCE0",
";X c #1CDFE6",
":X c #08F6F6",
">X c #2AE7E7",
",X c #00E1DD",
"<X c #868B99",
"1X c #968A8F",
"2X c #AD8D8B",
"3X c #9599A8",
"4X c #9695B0",
"5X c #A88DAF",
"6X c #9DA3B3",
"7X c #9CA0AF",
"8X c #A6ACBD",
"9X c #A4A9B9",
"0X c #DC9C82",
"qX c #D89A86",
"wX c #CD988B",
"eX c #E79D84",
"rX c #DEA188",
"tX c #E4A38B",
"yX c #EAA58B",
"uX c #E7A487",
"iX c #E9A693",
"pX c #F1AC92",
"aX c #F3AF94",
"sX c #CFB5B3",
"dX c #EABAAD",
"fX c #ACB2C4",
"gX c #AFB6C9",
"hX c #B3BACC",
"jX c #B0B7C9",
"kX c #B6BDD0",
"lX c #A8AEC0",
"zX c #BBC2D6",
"xX c #C1C9DD",
"cX c #D2C6C6",
"vX c #C5CDE1",
"bX c #F9F8F8",
"nX c #DDE4ED",
"mX c None",
/* pixels */
"mXmXmXmXmXmXmXmXmXmXmXmXmXmXmXmXmXmXmXmXmXmXmXmXmXmXmXmXmXmXmXmXmXmXmXmXmXmXmXmXmXmXmXmXmXmXmXmXmXmXmXmXmXmXmXmXmXmXmXmXmXmXmXmX",
"mXmXmXmXmXmXmXmXmXmXmXmXmXmXmXmXmXu 2 5 a v mXmXmXmXmXmXmXmXmXmXmXmXmXmXmXmXmXmXmXmXmXmXmXmXmXmXmXmXmXmXmXmXmXmXmXmXmXmXmXmXmXmX",
"mXmXmXmXmXmXmXmXmXmXmXmXmXmXmXmXu > 7 6 6 5 5 5 v n mXmXmXmXmXmXmXmXmXmXmXmXmXmXmXmXmXmXmXmXmXmXmXmXmXmXmXmXmXmXmXmXmXmXmXmXmXmX",
"mXmXmXmXmXmXmXmXmXmXmXmXmXmXmX2 > @ > 1 1 3 3 5 5 a 5 a a mXmXmXmXmXmXmXmXmXmXmXmXmXmXmXmXmXmXmXmXmXmXmXmXmXmXmXmXmXmXmXmXmXmXmX",
"mXmXmXmXmXmXmXmXmXmXmXmXmXt > & @ @ ; < 3 3 < 1 6 3 < 3 5 5 5 a n mXmXmXmXmXmXmXmXmXmXmXmXmXmXmXmXmXmXmXmXmXmXmXmXmXmXmXmXmXmXmX",
"mXmXmXmXmXmXmXmXmXmXmXmX2 & @ & @ @ ; 7 < < 7 < 1 < 7 7 ; ; < 5 5 a n mXmXmXmXmXmXmXmXmXmXmXmXmXmXmXmXmXmXmXmXmXmXmXmXmXmXmXmXmX",
"mXmXmXmXmXmXmXmXmXmXt > @ + + + + @ ; < < 3 < < < 1 6 1 < 7 7 < 1 6 v mXmXmXmXmXmXmXmXmXmXmXmXmXmXmXmXmXmXmXmXmXmXmXmXmXmXmXmXmX",
"mXmXmXmXmXmXmXmXmXy 2 # # # + # + @ ; < < 7 7 7 3 6 5 x x z 6 1 < 3 a mXmXmXmXmXmXmXmXmXmXmXmXmXmXmXmXmXmXmXmXmXmXmXmXmXmXmXmXmX",
"mXmXmXmXmXmXmXmXmXu & o o + + o # # ; 3 < v v 5 7 7 1 x x x x 6 3 < i mXmXmXmXmXmXmXmXmXmXmXmXmXmXmXmXmXmXmXmXmXmXmXmXmXmXmXmXmX",
"mXmXmXmXmXmXmXmXmXu > o o o + o o o @ 4 ; >.y.w.0.] N v z x z 3 < < i mXmXmXmXmXmXmXmXmXmXmXmXmXmXmXmXmXmXmXmXmXmXmXmXmXmXmXmXmX",
"mXmXmXmXmXmXmXmXmXu > o o + + o o o > 5   y.s.uXrXrXwXy.w.>.C c < 3 a mXmXmXmXmXmXmXmXmXmXmXmXmXmXmXmXmXmXmXmXmXmXmXmXmXmXmXmXmX",
"mXmXmXmXmXmXmXmXmXu & # o + + o # . c ;.] :.p.rXaXaXaXpXuXrXp.:.b 5 v mXmXmXmXmXmXmXmXmXmXmXmXmXmXmXmXmXmXmXmXmXmXmXmXmXmXmXmXmX",
"mXmXmXmXmXmXmXmXmXu & o o + o o >   m y.a.e.;.q.y.rXiXtXuXaXyXi.#.7 B mXmXmXmXmXmXmXmXmXmXmXmXmXmXmXmXmXmXmXmXmXmXmXmXmXmXmXmXmX",
"mXmXmXmXmXmXmXmXmXu > o + o o + ;   V a.qXeXqXt.>.a.rXrXqXe.y.5.#.3 v mXmXmXmXmXmXmXmXmXmXmXmXmXmXmXmXmXmXmXmXmXmXmXmXmXmXmXmXmX",
"mXmXmXmXmXmXmXmXmXu > o + + o . ;   C s.tXsXsX2X2XqXtXrXqXp.5.#.#.:.[ mXmXmXmXmXmXmXmXmXmXmXmXmXmXmXmXmXmXmXmXmXmXmXmXmXmXmXmXmX",
"mXmXmXmXmXmXmXmXmXu & o + + . ; v + C eXdXbXnXC.V.a.uXuXtXwXwX4.8.d.:.mXmXmXmXmXmXmXmXmXmXmXmXmXmXmXmXmXmXmXmXmXmXmXmXmXmXmXmXmX",
"mXmXmXmXmXmXmXmXmXu > o o o . 3 m o C s.iXbXbXC.C.a.eXpXeXF.XXcX2Xs.e.mXmXmXmXmXmXmXmXmXmXmXmXmXmXmXmXmXmXmXmXmXmXmXmXmXmXmXmXmX",
"mXmXmXmXmXmXmXmXmXy & o o o . 2 b c V t.i.dXdX5X4XeXeXpXrXV.XXbXcX0Xu.mXmXmXmXmXmXmXmXmXmXmXmXmXmXmXmXmXmXmXmXmXmXmXmXmXmXmXmXmX",
"mXmXmXmXmXmXmXmXmXu @ o o o . 3 b m Z 7.t.f.eXyXyXeXf.tXrX5X9XbXdXrXu.mXmXmXmXmXmXmXmXmXmXmXmXmXmXmXmXmXmXmXmXmXmXmXmXmXmXmXmXmX",
"mXmXmXmXmXmXmXmXmXu @ o o o O 7 b m Z 6.t.f.eXtXiXuXf.eXwXaXf.g.d.d.u.mXmXmXmXmXmXmXmXmXmXmXmXmXmXmXmXmXmXmXmXmXmXmXmXmXmXmXmXmX",
"mXmXmXmXmXmXmXmXmXu & o O #   3 b b M 9.8.t.i.eXyXuXuXuXuXaXuXi.d.@.mXmXmXmXmXmXmXmXmXmXmXmXmXmXmXmXmXmXmXmXmXmXmXmXmXmXmXmXmXmX",
"mXmXmXmXmXmXmXmXmXu & o . . , v v v M 9.7.7.t.s.0XyXpXuXuXyXf.d.y.9.mXmXmXmXmXmXmXmXmXmXmXmXmXmXmXmXmXmXmXmXmXmXmXmXmXmXmXmXmXmX",
"mXmXmXmXmXmXmXmXmXy @ # . & i v v c M 3.4.7.t.s.wXqXyXuXuXrXs.8.9.6.mXmXmXmXmXmXmXmXmXmXmXmXmXmXmXmXmXmXmXmXmXmXmXmXmXmXmXmXmXmX",
"mXmXmXmXmXmXmXmXmX, * = . & i v v v b o.O.O.$.8.e.1X1X1X2X2Xs.8.9.y.mXmXmXmXmXmXmXmXmXmXmXmXmXmXmXmXmXmXmXmXmXmXmXmXmXmXmXmXmXmX",
"mXmXmXmXmXmX~.].mXI X X X 7 a a c c b +.o.o.o.@.,.e.2X2X2X0.9.9.2.9.u.mXmXmXmXmXmXmXmXmXmXmXmXmXmXmXmXmXmXmXmXmXmXmXmXmXmXmXmXmX",
"mXmXmXmXmXW.Q.R.Q.T.Q P l - ; 3 i i b o.o.o.o.@.,.@.@.O.*.1.-.<.1.5.u.mXmXmXmXmXmXmXmXmXmXmXmXmXmXmXmXmXmXmXmXmXmXmXmXmXmXmXmXmX",
"mXmXmXmXmXW.U.T.T.K.T.K.E.! K q & 3 z M M A M O.$.$.@.$.-.*.1.1.1.@.u.mXmXmXmXmXmXmXmXmXmXmXmXmXmXmXmXmXmXmXmXmXmXmXmXmXmXmXmXmX",
"mXmXmXmXmX!.I.I.T.T.K.K.I.K.K.W L K e e d , z z c x M M V Z o.o.o.o.{.mXmXmXmXmXmXmXmXmXmXmXmXmXmXmXmXmXmXmXmXmXmXmXmXmXmXmXmXmX",
"mXmXmXmX~.R.W v.L.K.T.T.I.K.K.K.W U L U F : z z 4 , > = e F e P '.=X>X:X:X>XmXmXmXmXmXmXmXmXmXmXmXmXmXmXmXmXmXmXmXmXmXmXmXmXmXmX",
"mXmXmXmXW.Y.W W W W W J.K.I.K.J.R T U U P , c M c z 4 - K U U W (.+X,X:X:X:X;XmXmXmXmXmXmXmXmXmXmXmXmXmXmXmXmXmXmXmXmXmXmXmXmXmX",
"mXmXmXmXW.J.W W W W W W W L.I.J.R R R v.Q T ^ x c 4 G L T R R ! r P R.+X#X*X*XmXmXmXmXmXmXmXmXmXmXmXmXmXmXmXmXmXmXmXmXmXmXmXmXmX",
"mXmXmXmX!.P.I.L.W W W W W W I.J.R W b.b.b.b.Y 1 b : L b.b.b.b.P.F e v._.}.@X*XmXmXmXmXmXmXmXmXmXmXmXmXmXmXmXmXmXmXmXmXmXmXmXmXmX",
"mXmXmX].R.K.K.T.L.E W E E v.I.K.P.b.b.U.P.b.! l k , U b.J.I.T.T.F F K.`.oX#X.XmXmXmXmXmXmXmXmXmXmXmXmXmXmXmXmXmXmXmXmXmXmXmXmXmX",
"mXmXmX~.R.T.T.T.v.E W W E L.I.I.P.P.U.U.U.U.P.v.v.Q b.P.U.I.^.^.e F T._.oX+X.XmXmXmXmXmXmXmXmXmXmXmXmXmXmXmXmXmXmXmXmXmXmXmXmXmX",
"mXmXmXW.Y.T.T.T.W W W E W K.I.I.I.Q.Q.)./.Q.R.T.P.P.U.U.Q.U.`.(.e L ^.}.|.#X.XmXmXmXmXmXmXmXmXmXmXmXmXmXmXmXmXmXmXmXmXmXmXmXmXmX",
"mXmXmXQ.I.Y.Y.K.W W W W W K.T.K.R.OXOX#X#XOX_.`.).(.`.|.}.}.@X(.e L (.oXoX;XmXmXmXmXmXmXmXmXmXmXmXmXmXmXmXmXmXmXmXmXmXmXmXmXmXmX",
"mXmXmXn.E.T.T.K.Q Q Q E Q T.T.v.T.+X#X%X$X$X#XoX|._.oX$X$X$X#X).r U `.}.oX*XmXmXmXmXmXmXmXmXmXmXmXmXmXmXmXmXmXmXmXmXmXmXmXmXmXmX",
"mXmXmX] ' { ~ ! E W E ! L.K.T.R T.%X$X%X%X&X#XoX}._.oX%X$X$X$X_.r T `.|.|. XmXmXmXmXmXmXmXmXmXmXmXmXmXmXmXmXmXmXmXmXmXmXmXmXmXmX",
"mXmXw.q.Z A V N ' ^ ! E J.Y.I.U K.OX+X+X#X&X$X+XoX_.+X%X#X#X+X`.q E (._.}..XmXmXmXmXmXmXmXmXmXmXmXmXmXmXmXmXmXmXmXmXmXmXmXmXmXmX",
"mXmX..;.1.-.-.o.Z V B ' ~ L.K.e L._._.}.OX&X&X%X#X_.+X&X@X_._.^.q W /./.].mXmXmXmXmXmXmXmXmXmXmXmXmXmXmXmXmXmXmXmXmXmXmXmXmXmXmX",
"mXmXq.:.2.2.2.1.,.$.o.Z b m K   L._._._.+X&X%X&X#X_.+X&XOX_._.^.q Q E.I c mXmXmXmXmXmXmXmXmXmXmXmXmXmXmXmXmXmXmXmX| ..mXmXmXmXmX",
"mXmXq.:.2.2.4.4.2.2.2.$.%.M     K._._._.+X,X%X%X#X_.+X,X+XoX_.^.k ' b X % h ( mXmXmXmXmXmXmXmXmXmXmXmXmXmXmXmX| J I ` | mXmXmXmX",
"mXmX0.1.4.2.4.4.4.2.2.*.$.M $ X K._._._.OX&X%X$X+X_.+X&X$X#X@X^.' ] C $ O * j mXmXmXmXmXmXmXmXmXmXmXmXmX| ` s ) ..G 8 / | | mXmX",
"mXmXw.1.4.4.4.4.4.4.2.$.$.b $ X K._._._.+X&X%X$X+X_.+X&X$X+X X^.[ :.v   t 0 y mXmXmXmXmXmXmXmXmXmX{ | n w  .} ) kX9X_ 8 s ( | mX",
"mXmX0.2.2.2.4.4.4.4.3.*.%.6 %   I._.OX#X$X&X%XOXOX+X$X&X$X#XoX^.0.:.B   g s s / mXmXmXmXmX| mX_ ` t G [.) 3XzX6XxXzX6XM.j h ) mX",
"mXmX0.*.$.3.4.4.4.4.3.*.O.; %   I._.+X-X,X&X$X_.OX$X%X&X$X+X@X^.] 5.] # 8 t * f mXmXmX| ' ( `    .<X .zXfXgXvXhXhXhX8X3Xh / _ mX",
"mXmX0.$.$.3.4.4.4.4.3.$.o.O %   T._.+X-X-X,X$XoXOX$X$X&X%X#X X^.' 5.:.v   f t u mX` j / }   <X<X3XzXfXkXzX8XhXfXfXzXkXM.8 ( mXmX",
"mXmX0.$.*.,.4.4.4.4.3.,.%.> %   T._.+X-X&X&X$X_.OX$X$X,X%X#X@X!.l >.u.C % h s t * j  .G 9X3X8XzXfXkXfXlXhXlXzXzXhXvXzX_ h _ mXmX",
"mXmX0.=.*.,.4.4.4.4.4.4.,.4 % = T._.+X-X-X-X$X}.OX$X%X&X%X+X}.'.w Z e.:.k / 8 s M.} 8X7XfXhX9XgX6XfXgXfXvXhXfXvX<XM.4Xh ( mXmXmX",
"mXmX0.=.*.,.4.4.4.4.2.2.3.x $ % T._.#X,X-X-X$X}.OX$X%X&X%X$XoX^.l z 5.e.N J   ) 9X7X9X9X6X8X6XjXgXhXxX6XgX8XG <X{ h ( ( _ mXmXmX",
"mXmX0.=.$.<.4.4.4.2.3.2.2.M $ = Q.+X%X-X-X-X$X}.OX$X%X&X&X%X_.'.g ; 5.y.] d   | 3X3X3X9X6XhXlXjXkX[.lX .( ..G h mX{ mXmXmXmXmXmX",
"mXmX0.:.$.,.4.4.3.$.,.2.4.C $ X (.&X&X-X&X-X$X}.OX$X%X&X&X%XoX^.g - #.y.%.k J  .1X3X6XhX6XlX7X} <Xd ) _ / mXmXmXmXmXmXmXmXmXmXmX",
"mXmX0.:.*.,.2.4.2.*.*.2.4.Z $ X (.&X&X-X-X-X$X}.+X$X%X-X%X%XoX^.g ; B 2.O.v G 8 M.8X<X3XM.(  .s I { ( mXmXmXmXmXmXmXmXmXmXmXmXmX",
"mXmXq.:.$.,.2.4.3.*.*.2.2.+.$ = Q.#X#X+XOXOX+X#X$X%X$X#X%X%X}./.w : c O.*.z f *    .( h _ G mXmXmXmXmXmXmXmXmXmXmXmXmXmXmXmXmXmX",
"mXmX0.:.3.2.2.4.2.$.*.2.9.o.% 8 T.}._.|.|.}.OX$X$X-X$X%X$X%X}./.q - i +.<.b G _ s   j / mXmXmXmXmXmXmXmXmXmXmXmXmXmXmXmXmXmXmXmX",
"mXmXq.e.4.4.4.4.2.*.$.3.2.%.% % T.|.|.|.|.`.}.OX|. X!.U.|.%X}./.q - i V <.M v _ { h t mXmXmXmXmXmXmXmXmXmXmXmXmXmXmXmXmXmXmXmXmX",
"mXmXmX5.4.4.6.4.2.<.<.2.4.%.$ $ b.W.m.n.c.c.c.k.k.k.h.H /.&X|./.g 6 m m 1.#.$ f _ s w G mXmXmXmXmXmXmXmXmXmXmXmXmXmXmXmXmXmXmXmX",
"mXmXmXw.t.4.4.4.4.4.4.4.2.$.X 9 j.x.z.z.l.D.A.A.S.F.N.j./.#X_./.I c N C mXmXmX8 d y t mXmXmXmXmXmXmXmXmXmXmXmXmXmXmXmXmXmXmXmXmX",
"mXmXmXe.8.4.4.4.4.4.4.4.4.=.@ 9 B.F.F.F.G.D.D.F.S.A.A.z.c.Y /..X` mXmXmXmXmXmXmXG ) y j mXmXmXmXmXmXmXmXmXmXmXmXmXmXmXmXmXmXmXmX",
"mXmXmX:.7.4.4.4.4.4.4.4.2.<., S l.S.D.D.D.D.D.D.D.A.A.A.z.H ). XmXmXmXmXmXmXmXmXh G t k mXmXmXmXmXmXmXmXmXmXmXmXmXmXmXmXmXmXmXmX",
"mXmXmX:.6.4.4.4.4.4.4.4.2.<.p D N.S.D.D.S.S.A.A.N.S.S.S.F.A.~.~.mXmXmXmXmXmXmXmXs u 8 h mXmXmXmXmXmXmXmXmXmXmXmXmXmXmXmXmXmXmXmX",
"mXmXmX;.7.4.4.4.4.7.7.7.2.=.f D N.S.S.S.S.A.A.N.N.G.G.G.G.G.F.H.mXmXmXmXmXmXmXmXmXs h G mXmXmXmXmXmXmXmXmXmXmXmXmXmXmXmXmXmXmXmX",
"mXmXmX;.6.4.7.t.8.5.8.:.C J 9 H N.F.D.D.F.D.F.F.l.G.G.F.G.F.H.H.mXmXmXmXmXmXmXmXmXmXj mXmXmXmXmXmXmXmXmXmXmXmXmXmXmXmXmXmXmXmXmX",
"mXmXmXmX<.5.5.mXmXmXmXmXD S 9 H l.A.A.A.A.A.A.N.z.A.A.S.A.A.F.F.mXmXmXmXmXmXmXmXmXmXmXmXmXmXmXmXmXmXmXmXmXmXmXmXmXmXmXmXmXmXmXmX"
};
