/* XPM */
static char *result[] = {
/* columns rows colors chars-per-pixel */
"64 64 248 2 ",
"   c #010001",
".  c #090404",
"X  c #02020C",
"o  c #0B0B0C",
"O  c #0B0907",
"+  c #130C04",
"@  c #160904",
"#  c #15110D",
"$  c #1C1407",
"%  c #000014",
"&  c #0E0E13",
"*  c #00011B",
"=  c #020B17",
"-  c #150B17",
";  c #081318",
":  c #131214",
">  c #1B1612",
",  c #1D1A15",
"<  c #16151A",
"1  c #1C1B1C",
"2  c #17181A",
"3  c #261502",
"4  c #381B05",
"5  c #231B17",
"6  c #3C0709",
"7  c #23211E",
"8  c #2C2215",
"9  c #382819",
"0  c #382A02",
"q  c #000229",
"w  c #051729",
"e  c #1D1D21",
"r  c #121C27",
"t  c #000E36",
"y  c #211F22",
"u  c #162532",
"i  c #242324",
"p  c #2B2524",
"a  c #2C2B2C",
"s  c #272628",
"d  c #332D2A",
"f  c #38322C",
"g  c #2D2C31",
"h  c #242C37",
"j  c #333234",
"k  c #3A3635",
"l  c #363539",
"z  c #3C3A3C",
"x  c #3B3739",
"c  c #302F37",
"v  c #5A370A",
"b  c #442B13",
"n  c #4D3819",
"m  c #533B18",
"M  c #483303",
"N  c #663707",
"B  c #6A360D",
"V  c #463A2A",
"C  c #423D3C",
"Z  c #443838",
"A  c #57382B",
"S  c #5A1F19",
"D  c #594512",
"F  c #6C4902",
"G  c #79440B",
"H  c #765803",
"J  c #684A1C",
"K  c #6D521B",
"L  c #76551B",
"P  c #734A1B",
"I  c #5B4629",
"U  c #45413E",
"Y  c #4D4439",
"T  c #574735",
"R  c #5E5034",
"E  c #634A26",
"W  c #68532B",
"Q  c #735226",
"!  c #6A583A",
"~  c #735A34",
"^  c #714B2C",
"/  c #7C6129",
"(  c #77633B",
")  c #7D660E",
"_  c #0A2E4F",
"`  c #373943",
"'  c #233544",
"]  c #0F0E40",
"[  c #413E45",
"{  c #3E4247",
"}  c #384655",
"|  c #444343",
" . c #4B4544",
".. c #4B4A4C",
"X. c #42454C",
"o. c #524C49",
"O. c #5A554E",
"+. c #4A4D54",
"@. c #535254",
"#. c #5C5B5C",
"$. c #5A5658",
"%. c #4F5058",
"&. c #655845",
"*. c #635C58",
"=. c #705641",
"-. c #736446",
";. c #696259",
":. c #796B57",
">. c #7B715A",
",. c #525B66",
"<. c #5C6274",
"1. c #5C6067",
"2. c #646263",
"3. c #65646A",
"4. c #6C6867",
"5. c #726D6A",
"6. c #756962",
"7. c #7A7368",
"8. c #6D6D73",
"9. c #676C75",
"0. c #757272",
"q. c #797779",
"w. c #6F6F72",
"e. c #655E60",
"r. c #824B02",
"t. c #875902",
"y. c #935801",
"u. c #865B1B",
"i. c #A85B03",
"p. c #8C6915",
"a. c #9B6B18",
"s. c #95730E",
"d. c #A46900",
"f. c #B36C05",
"g. c #A77404",
"h. c #B57804",
"j. c #A16618",
"k. c #AB7A19",
"l. c #B57B15",
"z. c #8B5F2A",
"x. c #836329",
"c. c #967629",
"v. c #886635",
"b. c #9A7833",
"n. c #946F2A",
"m. c #A57926",
"M. c #B47825",
"N. c #AB6C21",
"B. c #C27F0E",
"V. c #846A44",
"C. c #8A7348",
"Z. c #897757",
"A. c #957147",
"S. c #847A76",
"D. c #827868",
"F. c #A27D40",
"G. c #B98503",
"H. c #B78815",
"J. c #B38D1A",
"K. c #AD8829",
"L. c #B8892C",
"P. c #A98434",
"I. c #B98A32",
"U. c #B69537",
"Y. c #B5932B",
"T. c #C38603",
"R. c #D59A05",
"E. c #C68B18",
"W. c #C49A1C",
"Q. c #C99818",
"!. c #D49C15",
"~. c #CC9108",
"^. c #D9A71C",
"/. c #DFB41B",
"(. c #D3A30C",
"). c #E5AF18",
"_. c #E7B518",
"`. c #E3B008",
"'. c #C28B2A",
"]. c #CB9924",
"[. c #C89836",
"{. c #CD952B",
"}. c #CEA224",
"|. c #D7A828",
" X c #CDA93D",
".X c #D7A738",
"XX c #DCB533",
"oX c #E7B926",
"OX c #E4B737",
"+X c #F3C31E",
"@X c #ECC10E",
"#X c #F5C727",
"$X c #EBC43B",
"%X c #F8CC38",
"&X c #FDD135",
"*X c #F7CA2C",
"=X c #9E8648",
"-X c #B99845",
";X c #AC925B",
":X c #B6914D",
">X c #908578",
",X c #A69171",
"<X c #BEA669",
"1X c #C69D45",
"2X c #C79D50",
"3X c #C7A145",
"4X c #D6AB48",
"5X c #DBB449",
"6X c #C7A45A",
"7X c #D4AE53",
"8X c #DBB659",
"9X c #E2BC49",
"0X c #E3BE58",
"qX c #C7A968",
"wX c #DAB966",
"eX c #CBAF6F",
"rX c #E0BE6A",
"tX c #EAC247",
"yX c #F5CB45",
"uX c #E9C654",
"iX c #F3CD5A",
"pX c #FBD558",
"aX c #FDD343",
"sX c #E8C668",
"dX c #FAD668",
"fX c #E9C877",
"gX c #F5D574",
"hX c #EFD276",
"jX c #7C7E84",
"kX c #807D80",
"lX c #898787",
"zX c #918F8E",
"xX c #959394",
"cX c #9A989B",
"vX c #8E8D8F",
"bX c #A29E99",
"nX c #AEA796",
"mX c #9A9DA4",
"MX c #A9A7A6",
"NX c #B4B1B1",
"BX c #A09DA1",
"VX c #DFBE81",
"CX c #E8CA88",
"ZX c #F3D582",
"AX c #EBD292",
"SX c #D9C596",
"DX c #CCC9C6",
"FX c None",
/* pixels */
"FXFXFXFXFXFXFXFXFXFXFXFXFXFXFXFXFXFXFXFXFXFXFXFX5.FXFXFXFXFXFXFXFXFXFXFXFXFXFXFXFXFXFXFXFXFXFXFXFXFXFXFXFXFXFXFXFXFXFXFXFXFXFXFX",
"FXFXFXFXFXFXFXFXFXFXFXFXFXFXFXFXFXFXFXFXFXFXFXFX6.6.6.FXFXFXFXFXFXFXFXFXFXFXFXFXFXFXFXFXFXFXFXFXFXFXFXFXFXFXFXFXFXFXFXFXFXFXFXFX",
"FXFXFXFXFXFXFXFXFXFXFXFXFXFXFXFXFXFXFXFXFXFXFXFXw q FXFXFXFXFXFXFXFXFXFXFXFXFXFXFXFXFXFXFXFXFXFXFXFXFXFXFXFXFXFXFXFXFXFXFXFXFXFX",
"FXFXFXFXFXFXFXFXFXFXFXFXFXFXFXFXFXFXFXFXFXFXFXFXG ;XFXFXFXFXFXFXFXFXFXFXFXFXFXFXFXFXFXFXFXFXFXFXFXFXFXFXFXFXFXFXFXFXFXFXFXFXFXFX",
"FXFXFXFXFXFXFXFXFXFX2 FXFXFXFXFXFXFXFXFX2X(.@XG.T.fXFXFXFXFXFXFXFXFXFXFXFXFXFXFXFXFXFXFXFXFXFXFXFXFXFXFXFXFXFXFXFXFXFXFXFXFXFXFX",
"FXFXFXFXFXFXFXFXFX2   jXxXz xX5.z FXFX2X4XwXgXrXdX7XFXFXFXFXFXFXFXFXFXFXFXFXFXFXFXFXFXFXFXFXFXFXFXFXFXFXFXFXFXFXFXFXFXFXFXFXFXFX",
"FXFXFXFXFXFXFXFXFXC   xXDXvXMX#.g FXFX<X<X;X8X7XuXY.FXFXFXFXFXFXFXFXFXFXFXFXFXFXFXFXFXFXFXFXFXFXFXFXFXFXFXFXFXFXFXFXFXFXFXFXFXFX",
"FXFXFXFXFXFXFXFXk z 1 | 8.lXxX#.  FXx fX2Xm.rX1XR.Y.FXFXFXFXFXFXFXFXFXFXFXFXFXFXFXFXFXFXFXFXFXFXFXFXFXFXFXFXFXFXFXFXFXFXFXFXFXFX",
"FXFXFXFXFXFXFXFXp Z           k 7 FX>.8X].CXAXsXR.4XFXFXFXFXFXFXFXFXFXFXFXFXFXFXFXFXFXFXFXFXFXFXFXFXFXFXFXFXFXFXFXFXFXFXFXFXFXFX",
"FXFXFXFXFXFXFXFXx x   , 1 i l & 7 % Z.L.<XqX3X}.!.4XFXFXFXFXFXFXFXFXFXFXFXFXFXFXFXFXFXFXFXFXFXFXFXFXFXFXFXFXFXFXFXFXFXFXFXFXFXFX",
"FXFXFXFXFXFXFXFX@.[ . d FX .    k w A.1X2Xf.g.k..Xi.FXFXFXFXFXFXFXFXFXFXFXFXFXFXFXFXFXFXFXFXFXFXFXFXFXFXFXFXFXFXFXFXFXFXFXFXFXFX",
"FXFXFXFXFXFXFXFX[ [   FXFXFX5.2.[ w z..X[.G.G.g.|.P.FXFXFXFXFXFXFXFXFXFXFXFXFXFXFXFXFXFXFXFXFXFXFXFXFXFXFXFXFXFXFXFXFXFXFXFXFXFX",
"FXFXFXFXFXFXFXFXj z   FXFXFX0.q.l * n.].[.7XrXU.OX2XFXFXkXFXFXFXFXFXFXFXFXFXFXFXFXFXFXFXFXFXFXFXFXFXFXFXFXFXFXFXFXFXFXFXFXFXFXFX",
"FXFXFXFXFXFXFXFXlXS.s FXFXFX@.@.  = a.h.qXSXrX8XuX:X3.e $.8.FXFXFXFXFXFXFXFXFXFXFXFXFXFXFXFXFXFXFXFXFXFXFXFXFXFXFXFXFXFXFXFXFXFX",
"FXFXFXFXFXFXFXFXS.bXe FXFXFX0.lXC % y.:XVX8X_.$XhXhX<X    @ FXFXFXY Y FXFXFXFXFXFXFXFXFXFXFXFXFXFXFXFXFXFXFXFXFXFXFXFXFXFXFXFXFX",
"FXFXFXFXFXFXFXFX$.#.  FXFXFX  vXlX  z.qX0XOXgXCXCXZXAX&.= =XFXFXFXFX) FXFXFXFXFXFXFXFXFXFXFXFXFXFXFXFXFXFXFXFXFXFXFXFXFXFXFXFXFX",
"FXFXFXFXFXFXFXFX#.#.j FXFXFX. @.+.V :X4X0XiXZXfX8XVXAXD.X =XgXFXFXiXuXFXFXFXFXFXFXFXFXFXFXFXFXFXFXFXFXFXFXFXFXFXFXFXFXFXFXFXFXFX",
"FXFXFXFXFXFXmXNX@.x FXFXFXFX5 $   P .XsXhXCXdXqX;.qXqXK.D U.dXpXdXdXgXSXeXwXsXuX9XFXFXFXFXFXFXFXFXFXFXFXFXFXFXFXFXFXFXFXFXFXFXFX",
"FXFXFXFXFXFXq.cX1.i FXFXFXFX  % v.7XhXZXhXsXgX,Xe.4X5XOX9XOX_.`.).`.,XvXmXvXwXdXgXdX*XoXFXFXFXlXFXFXFXFXFXFXFXFXFXFXFXFXFXFXFXFX",
"FXFXFXFXFXP.P.8.$.s FXFXFX4...D sXhXuX[.(./.dXNX>X0X9X{.E.^.oXOXoXI._ #.lXmX4.R.|.dXdX&XFXFX0.bXcXFXFXFXFXFXFXFXFXFXFXFXFXFXFXFX",
"FXFXFXFXFXc.K.O.X.a FXFXFXw.<.U.dX9XG.h.G.].5XDXbXG.k.f.T.^.oX$XOXx.K I } xXvXA.l.).iXpXiX[ t <.cXq.FXFXFXFXFXFXFXFXFXFXFXFXFXFX",
"FXFXFXFXFXA W ! h 7 p 0.0.,.O.OX Xh.l.Q.Q.(.|.nX0.  6 i.~./.$XyX4Xp.W.J.t.3.xX<.c.`.yXpXaXI.Q >.jXvXFXFXFXFXFXFXFXFXFXFXFXFXFXFX",
"FXFXFXFXFX9 I W r e i 5.+.t.R.tXx.r.J.H.W.}.8X>...  v f.l.}. X5XP.s.5XeXm.u lX9.j.`.`.pX$X}.G.Y.4.lX2.FXFXFXFXFXFXFXFXFXFXFXFXFX",
"FXFXFXFXFX9 n W q 7   I x.d.E.9XB p.k.K.K.-XsX>...  B h.k.P.P.-Xc.n.eXSX;X@ 0.8.v.).OX%XtXJ.k.k.( 3.#.FXFXFXFXFXFXFXFXFXFXFXFXFX",
"FXFXFXFXFX7 9 W * ,   9 ^ 6 b.[.y.K.P.m.3XwXfX6.` O F h.!.OXuX8XK.{ %.zX,Xt.2.9.=.3X3X+XaXXXW.6 k.;.X.FXFXFXFXFXFXFXFXFXFXFXFXFX",
"FXFXFXFXFX2 9 W % #   9 A   F.j.m.5X4X1X-XwX0XcX-.0 N H.|.$XdXsX/ ' = +.q.a.T 1.@.=.T._.%X%XoXJ H b._ FXFXFXFXFXFXFXFXFXFXFXFXFX",
"FXFXFXFXFX, 8 W X $   9 A z.z.y.[.7X4X5X8XwX5XNXD.s.N B.|.tXgXwXR u n I %.( E +.{ G ^.#X*XaXoXQ.9 / u j FXFXFXFXFXFXFXFXFXFXFXFX",
"FXFXFXFXFXm m ! X @ .   3 E B y.'.[.[.4XuX8XQ.NXzXg.B '.|.9XhX8XV r M v X.-.F { c a.).W.-XsX%X~.C.h p s FXFXFXFXFXFXFXFXFXFXFXFX",
"FXFXFXFXFXJ D W % +   d | d 4 B j.M.'.4X7X4X~.zXD.g.P ]..X9XgX7Xs 2   = z &.F c w c.E.%   K.aXoX[.E p i FXFXFXFXFXFXFXFXFXFXFXFX",
"FXFXFXFXFX! ! E = +   k k i 3 N B N.'.1X[.[.l.MXS.d.u.'.[..XrX-Xh + + 7 a o.K s t u.s.F B R.&X%X(.k.5 i FXFXFXFXFXFXFXFXFXFXFXFX",
"FXFXFXFXFXO.-.W w +   1 O O @ 4 N j.M.'.'.M.h.MX>Xy.P Q p g *.Z.k   1 s s Y K ; 1 5 L i.i.).#X%X#X!.b w FXFXFXFXFXFXFXFXFXFXFXFX",
"FXFXFXFXFXd I ( w .   1 j p   : 4 y.M.M.N.l.f.bXS.6 X w r   l D.k   1 g s U K   > X E.!.l.).+X*X%X_.s.% FXFXFXFXFXFXFXFXFXFXFXFX",
"FXFXFXFXFXp I &.w # : i p 7 #   2 Z N y.j.j.d.bX9.  7 k U ..8 >Xz   *.j z x K $ # X H.^.H.H.^._.&X*X(.b FXFXFXFXFXFXFXFXFXFXFXFX",
"FXFXFXFXFXT Y &.% i a : ..  : C & ,.1.@.A N v bX;.  z e { 2.+ >Xz 2 4.a k j E 3 X o 9 p.W.W.K.H.|.&X_.g.FXFXFXFXFXFXFXFXFXFXFXFX",
"FXFXFXFXFX-.:.Y % :   : ..#.k ..z   3.8...@.{ xXw.  2   a  .3 7.U V @.o . l P 3   > %   0 J.+XW.W.&X#X!.FXFX8 FXFXFXFXFXFXFXFXFX",
"FXFXFXFX  D.,Xq > X   .   O.o.p 0.a   s @.@.U xX0.  e   i z $ >.U 0 5.   .| J 3   > p y *   J.+X_.#X%X_.k.p i O o j g FXFXFXFXFX",
"FXFXFXFX  f O.=             i f  .z           2.2.: 2   1 g $ -.C b 5.1 j ..K 3   , : 1 p c q Y.+X+X*X#XH.Q % +   : x C o FXFXFX",
"FXFXFXFX.   % o           o         o   o o : 2   g <   < y + ( C 9 z U k ..K $ X O . s l g [ q ^.+X#X&X_.m.Y X :   + > e FXFXFX",
"FXFXFXFXFXO                 O     O       o o   : [   X & e . -.C 4 l U  .$.L .   < [ #.3.,.$.` - p.).&X*XQ.b.  $ o o 5 f FXFXFX",
"FXFXFXFXFXFXFX      FXFX                    o # x $.g o 1 y   ! U 3  .C z ;.L     d [   % 4.q.3.o.t v.1X5X}.|.&.% d o 1 5 FXFXFX",
"FXFXFXFXFXFXFXFXFXFXFXFXFXFX                . 1  ...X.  y i * ~ U 9 # o C 6.H X . 7    .+.j   y o.;.*.[ t ~ %X7X- ..# &   FXFXFX",
"FXFXFXFXFXFXFXFXFXFXFXFXFXFXFXFX                s         , r ! o.2 .   @.7.H X > o   w.mXjX#.|     @ V . -.tXoXv.t 8 o . FXFXFX",
"FXFXFXFXFXFXFXFXFXFXFXFXFXFXFXFXFXFX                      O X U @.a     2.>.F % , 1   q.NXvXMXvXlXq.e.3 d Q 0X4X[.f X #   FXFXFX",
"FXFXFXFXFXFXFXFXFXFXFXFXFXFXFXFXFXFXFXFX        . . FXFX  #   R C.` p f 9.v.F % 7 :   #.xXxXMXNXxXbXMX9 g B OXI.f./ % $ 1 FXFXFX",
"FXFXFXFXFXFXFXFXFXFXFXFXFXFXFXFXFXFXFXFXFXFX      FXFXFXFXFXFXY :.o.z @.5./ n % i   y g   ..5.MXNXzX5.p * J !.H.G v.` 5 i FXFXFX",
"FXFXFXFXFXFXFXFXFXFXFXFXFXFXFXFXFXFXFXFXFXFXFXFXFXFXFXFXFXFXFXFXC.;.;.0.>.I * 1 i   2 j       %.bXMXq.  h Q E.N.m n h j FXFXFXFX",
"FXFXFXFXFXFXFXFXFXFXFXFXFXFXFXFXFXFXFXFXFXFXFXFXFXFXFXFXFXFXFXFX( >.9.w.( E * i i   : i   & : e 4.| 5 s i T G z.s +.#.FXFXFXFXFX",
"FXFXFXFXFXFXFXFXFXFXFXFXFXFXFXFXFXFXFXFXFXFXFXFXFXFXFXFXFXFXFXFX( P.O.O.x.D * s 2       < : &   %.@.  2   j 8.a ..z   FXFXFXFXFX",
"FXFXFXFXFXFXFXFXFXFXFXFXFXFXFXFXFXFXFXFXFXFXFXFXFXFXFXFXFXFXFXFXFXc.H.c.T 5 2 1 o . o     1 < <     o 1   d q.o.i   : FXFXFXFXFX",
"FXFXFXFXFXFXFXFXFXFXFXFXFXFXFXFXFXFXFXFXFXFXFXFXFXFXFXFXFXFXFXFXFXf k.c.q : 2 :   & j g &     : 1 &   a U 5 < <   : FXFXFXFXFXFX",
"FXFXFXFXFXFXFXFXFXFXFXFXFXFXFXFXFXFXFXFXFXFXFXFXFXFXFXFXFXFXFXFXFXs f V 7 # X       1 l ` c 2     &   x 2. .s   &   FXFXFXFXFXFX",
"FXFXFXFXFXFXFXFXFXFXFXFXFXFXFXFXFXFXFXFXFXFXFXFXFXFXFXFXFXFXFXFXFX  r u 1               2 c ` x e & & j ..j   o   FXFXFXFXFXFXFX",
"FXFXFXFXFXFXFXFXFXFXFXFXFXFXFXFXFXFXFXFXFXFXFXFXFXFXFXFXFXFXFXFXFXFX5 7 o           .       & s c y   j         FXFXFXFXFXFXFXFX",
"FXFXFXFXFXFXFXFXFXFXFXFXFXFXFXFXFXFXFXFXFXFXFXFXFXFXFXFXFXFXFXFXFXFXFX                  .         2 s 1   . FXFXFXFXFXFXFXFXFXFX",
"FXFXFXFXFXFXFXFXFXFXFXFXFXFXFXFXFXFXFXFXFXFXFXFXFXFXFXFXFXFXFXFXFXFXFXFXFXFXFX                      &     FXFXFXFXFXFXFXFXFXFXFX",
"FXFXFXFXFXFXFXFXFXFXFXFXFXFXFXFXFXFXFXFXFXFXFXFXFXFXFXFXFXFXFXFXFXFXFXFXFXFXFXFXFXFX                    FXFXFXFXFXFXFXFXFXFXFXFX",
"FXFXFXFXFXFXFXFXFXFXFXFXFXFXFXFXFXFXFXFXFXFXFXFXFXFXFXFXFXFXFXFXFXFXFXFXFXFXFXFXFXFXFXFX                FXFXFXFXFXFXFXFXFXFXFXFX",
"FXFXFXFXFXFXFXFXFXFXFXFXFXFXFXFXFXFXFXFXFXFXFXFXFXFXFXFXFXFXFXFXFXFXFXFXFXFXFXFXFXFXFXFXFXFX          FXFXFXFXFXFXFXFXFXFXFXFXFX",
"FXFXFXFXFXFXFXFXFXFXFXFXFXFXFXFXFXFXFXFXFXFXFXFXFXFXFXFXFXFXFXFXFXFXFXFXFXFXFXFXFXFXFXFXFXFXFXFX      FXFXFXFXFXFXFXFXFXFXFXFXFX",
"FXFXFXFXFXFXFXFXFXFXFXFXFXFXFXFXFXFXFXFXFXFXFXFXFXFXFXFXFXFXFXFXFXFXFXFXFXFXFXFXFXFXFXFXFXFXFXFXFXFXFXFXFXFXFXFXFXFXFXFXFXFXFXFX",
"FXFXFXFXFXFXFXFXFXFXFXFXFXFXFXFXFXFXFXFXFXFXFXFXFXFXFXFXFXFXFXFXFXFXFXFXFXFXFXFXFXFXFXFXFXFXFXFXFXFXFXFXFXFXFXFXFXFXFXFXFXFXFXFX",
"FXFXFXFXFXFXFXFXFXFXFXFXFXFXFXFXFXFXFXFXFXFXFXFXFXFXFXFXFXFXFXFXFXFXFXFXFXFXFXFXFXFXFXFXFXFXFXFXFXFXFXFXFXFXFXFXFXFXFXFXFXFXFXFX",
"FXFXFXFXFXFXFXFXFXFXFXFXFXFXFXFXFXFXFXFXFXFXFXFXFXFXFXFXFXFXFXFXFXFXFXFXFXFXFXFXFXFXFXFXFXFXFXFXFXFXFXFXFXFXFXFXFXFXFXFXFXFXFXFX",
"FXFXFXFXFXFXFXFXFXFXFXFXFXFXFXFXFXFXFXFXFXFXFXFXFXFXFXFXFXFXFXFXFXFXFXFXFXFXFXFXFXFXFXFXFXFXFXFXFXFXFXFXFXFXFXFXFXFXFXFXFXFXFXFX"
};
