/* XPM */
static char *f028d238ab724521f187ba7daeee8fe7Kd3GSF6BSVmByRF8[] = {
/* columns rows colors chars-per-pixel */
"64 64 242 2 ",
"   c #000D00",
".  c #000500",
"X  c #021200",
"o  c #011B00",
"O  c #0E1C00",
"+  c #0A1300",
"@  c #121C04",
"#  c #1C1F14",
"$  c #042200",
"%  c #0A2600",
"&  c #0D2C00",
"*  c #042900",
"=  c #152402",
"-  c #122D01",
";  c #192B03",
":  c #1B260A",
">  c #0F3100",
",  c #133201",
"<  c #1A3402",
"1  c #1C3C02",
"2  c #1B360A",
"3  c #1C3C0B",
"4  c #163806",
"5  c #1D3C12",
"6  c #223E0B",
"7  c #243B07",
"8  c #283815",
"9  c #222812",
"0  c #323927",
"q  c #333A2B",
"w  c #1E410A",
"e  c #1C4203",
"r  c #234304",
"t  c #2A4404",
"y  c #2B4B04",
"u  c #24430C",
"i  c #2B450C",
"p  c #254A0D",
"a  c #2C4B0B",
"s  c #254A05",
"d  c #324E0D",
"f  c #314C05",
"g  c #2D520C",
"h  c #2D5204",
"j  c #36570A",
"k  c #254313",
"l  c #2B4413",
"z  c #2C4C13",
"x  c #2A461B",
"c  c #2D4B1A",
"v  c #264915",
"b  c #314D14",
"n  c #324D1B",
"m  c #364818",
"M  c #2E5213",
"N  c #2D531C",
"B  c #335314",
"V  c #345914",
"C  c #3B5C14",
"Z  c #34531C",
"A  c #3A551D",
"S  c #36591C",
"D  c #3B5B1D",
"F  c #3C5614",
"G  c #3C650A",
"H  c #3D6318",
"J  c #2E4C21",
"K  c #374825",
"L  c #345322",
"P  c #3A5524",
"I  c #365A22",
"U  c #3C5B24",
"Y  c #3B552B",
"T  c #3D5B2A",
"R  c #36542B",
"E  c #3E5D31",
"W  c #3C4532",
"Q  c #3E6224",
"!  c #3D622A",
"~  c #405E1B",
"^  c #425E14",
"/  c #446A0D",
"(  c #43621C",
")  c #4A651D",
"_  c #4B6B1C",
"`  c #456818",
"'  c #4A7519",
"]  c #53761E",
"[  c #45710F",
"{  c #425526",
"}  c #425D24",
"|  c #425D2C",
" . c #4B5D2E",
".. c #43552E",
"X. c #454D3A",
"o. c #425E33",
"O. c #4B5E32",
"+. c #4A5839",
"@. c #505F34",
"#. c #446325",
"$. c #496424",
"%. c #4B6B24",
"&. c #44632C",
"*. c #49652B",
"=. c #466A2B",
"-. c #4C6B2D",
";. c #466B24",
":. c #516C2D",
">. c #526929",
",. c #4D7124",
"<. c #4D722D",
"1. c #547325",
"2. c #54742C",
"3. c #547C2B",
"4. c #5A7B2D",
"5. c #567926",
"6. c #456332",
"7. c #4A6533",
"8. c #466A33",
"9. c #4C6B34",
"0. c #466439",
"q. c #4A653A",
"w. c #4D6B3A",
"e. c #516334",
"r. c #526E34",
"t. c #526D3B",
"y. c #57693A",
"u. c #4E7234",
"i. c #4E723B",
"p. c #547334",
"a. c #5A7533",
"s. c #547A34",
"d. c #5B7A34",
"f. c #54733B",
"g. c #5A753C",
"h. c #56793C",
"j. c #5B7B3C",
"k. c #627C3C",
"l. c #617A39",
"z. c #515B44",
"x. c #5B5C54",
"c. c #4C5343",
"v. c #4F6D42",
"b. c #536C42",
"n. c #5C6D44",
"m. c #576747",
"M. c #557442",
"N. c #5A7644",
"B. c #567A43",
"V. c #5C7B43",
"C. c #5D7C4A",
"Z. c #59764A",
"A. c #5D7D51",
"S. c #616E46",
"D. c #627D44",
"F. c #63744B",
"G. c #627D4B",
"H. c #697B4C",
"J. c #677A45",
"K. c #646A59",
"L. c #667955",
"P. c #727D5E",
"I. c #727A67",
"U. c #6E7368",
"Y. c #5D832C",
"T. c #588327",
"R. c #5C823C",
"E. c #5B8231",
"W. c #63882C",
"Q. c #618235",
"!. c #648C33",
"~. c #64833C",
"^. c #658B3B",
"/. c #6A8B3E",
"(. c #6A8938",
"). c #6A9539",
"_. c #72993B",
"`. c #5E8243",
"'. c #5E814C",
"]. c #648344",
"[. c #6A8545",
"{. c #658A44",
"}. c #6B8A44",
"|. c #64834B",
" X c #6A844C",
".X c #668B4B",
"XX c #6B8A4D",
"oX c #718D4B",
"OX c #718A45",
"+X c #6E904B",
"@X c #6C9742",
"#X c #73934C",
"$X c #759748",
"%X c #658352",
"&X c #6A8553",
"*X c #6C8B53",
"=X c #6D8B5A",
"-X c #678854",
";X c #728E54",
":X c #738C5A",
">X c #738756",
",X c #6D9254",
"<X c #6D915C",
"1X c #739354",
"2X c #7A9455",
"3X c #7B9B54",
"4X c #74935B",
"5X c #7B955C",
"6X c #7C9A5B",
"7X c #759957",
"8X c #7BA54A",
"9X c #7CA257",
"0X c #778A6C",
"qX c #749462",
"wX c #7C9A63",
"eX c #799865",
"rX c #7D8578",
"tX c #7F9670",
"yX c #6F8F60",
"uX c #7EA167",
"iX c #819A5B",
"pX c #82A354",
"aX c #87AA59",
"sX c #8AB456",
"dX c #83AA4F",
"fX c #819D64",
"gX c #849D6A",
"hX c #899D62",
"jX c #889673",
"kX c #85A36A",
"lX c #8BA66C",
"zX c #8CAA69",
"xX c #85A564",
"cX c #8CB364",
"vX c #96B76A",
"bX c #8AA771",
"nX c #92AD72",
"mX c #99AE7B",
"MX c #9AB678",
"NX c #A6BC7B",
"BX c #9EC076",
"VX c #B0C88C",
/* pixels */
"M.- x 0.%XB.B.9.u.S -..Xh.Q Q Q N c v w.|.i.w.G.  Y q.o.c 7.b U &.u &X&.n u Z    XwXV.-.*.#.a D {.=.#.`.f.7.%XT P q.6.T z XXD.-.",
"Z.J L L =Xw.|.f.&.D h..X`.h.=.=.w 3 N i.`.U L T R L o.q.%X% V.*Xr.z n &.&.n G.G.5XD.V.g.-.D p.1X=.=.p.V.B.Z k 6.c < 3 & u g. XU ",
"x v.L q.6.&.U &.I 9.|.u.=.h.h.h.6.c w.|.-X9.6.6.L Y J q.6.C.:X*Xf.| $ &.G.7.|.*X5XU 9.V.9.D j.a.u.h.h.&.-X'., 6.% Y L o Z &.#.g.",
"- R o.o.T c u v i.,X|.I u Z u.B.B.6.V.|.&.&.i.C.M.J q.R T G.A -.*.f., 9.=X%X|.t.9.t.|.8.D V.].> Q Q I z f.%X, 3 x M.=Xw.z l b 9.",
"0.Y w.w.t.|.&.&.'.-X8.&.L 3 T 8.w.C.'.! o u w.%X%Xk E , L L , -.*Xh.u I f.f.i.T L 7.f.8.I p.#.e M p S &.k c k x k | %X7.l | 9.} ",
"L.q.v.G.t.kX0.f.6.c 3 M.'.L T 6.4 w.C.9.& v L & o 6.- 6 & % #.XX*Xh.=.! l , L %X6.&.Z f.V.u.a S &.i.|.B.> L =XyXk - x x | U 9.C.",
"0.Y v.R C.G.6.6.Y , 3 w.%XZ.E R 0.C.V.V.Q Z V.T P o k o Y C.S 9.XXi.p Z B.'.B.B.i.%Xw.I V.*X&.r =.*X-X6.& w.qX=Xc x t.c % T C.3 ",
"o.b.L L %XtXB.N.C.Y v.E E A.R 4 k c 6.=XC.$ T w.6.R v.k C.f.4XD V ,X8.I i.*XB.! f.B.&.p ! ! N u z B.f.U 3 &.c L E 6 k N.P k & | ",
"T Z.R o.k w.&XM.C.q.Z.tXv.J 0.5 , c k Z i.&.Z q.T 6.0.M.8.|.|.h.,X`.,X,XM Q i.i.i.8.! w 1 ! u.! I w L &.P , c v.w.M.G.w.6.T & L ",
"R =Xq.T | C.6.T G.C.Z.A.0.o.v.4 5 %XC.& U `.%XT v.C.L %XU h.`.`.xXs.7X,XI z v i.! i.! k ! V.B.-X&.Z 6.6.k , q.C.P 7.w.0.w.G.P | ",
"2 Z.t.P t.kXt.n =X| T x 6.qX0.3 J =XqXz &.h.-XC.v.C.M.C.! Q u.s.+XV `.u.=.u.v 8.i.N I B.<XeX4XeX|.w.T w o , B.6.- c P T 6.G.w.n ",
"- J 6.w.Z.=XC.| N.N.Y Y 6.T E x E f.w.B.f.U U qXi.! <X'.=.S M {.;.g <.=.=.`.I i.w.I C.uXuXqX=X*XV.9.8.u , T 7.4 L T Z 6.7.C.N.L ",
"6 n Y G.Z.x | M.C.C.-XZ.6.P 3 x T Y c C.qX*X! &.v C.<X! e ,Xs.R.R.#.V h.|.*X&.! B.=X'.w.=XeXZ.T w.h.|.Z A |.8.Z %X7.u &.6.t.N.| ",
"k 0.c P %Xn P w.P V.B.G.w.T w.c & L q.&.8.! w.'.I E I 8.i.R.{..Xj.R.D j..X,X.X&.%X%X8.3 L '.i.c I f.`.S z w.T h.&XN.6.|.f.t.G.%X",
"x 0.x 2 :X&XM.7.6 A 4Xf.u T B.C.0.c & & w z &.'.T 6.N N `.u..X<.V {.7XR.#.S =X|.6.6.Z.P , L q.6.u I &.i.! Q I &.I &.9.C.&.&.9.f.",
"Y x Y P qX=XG.N.f.&.4X7.% v w.B.V.T w 9.! I u 8.w.B.I e p u.;.;.d.{.3Xp.Q * &.8.L Z.C.P E Z.E c U Z w C.V.p.].-.U &.T U P t.8.| ",
"w.l q.w.N.:Xt.G.*.4Xf.&.I > u w.C.U 7.G.C.V.v I B.f.I p * R.{.u.}.3X+Xp.D a Z U V.=X6.3 w.C.R M.G.| U #.f.XXB.t.N.t.< c c :XD.Z ",
"T 7.6 &.M.G.G.P r.9.9.4X'.3 c B.&.A 9.9.%Xf.V.|.U 8.B.z =.`.9X=.+XxXd.XXp.z h.G.eX7.| q.o.Y v.yX%X7.7.A p D 9.V.f.P | P L G.|.b ",
"6.6   9.&X7.} f.f.U *.wX4Xh.'.i.&.f.G.6.7.Z i.w.Z h.-X1X|.M V #.R.p.].[.].].Z &.=X| N.tXq.2 J T q.w.w.U D #.*.D.9.T b.| X A 9.D ",
"l 7.n L r.|.D.f.&.f.|.|.&.w.<X'.> 9.|.-X6.w.U N 4X|.u.*XkXM a H D y 6X*.j.nXL 7.w.t.q.q.6 o $ $ 6 T Z A D.j.Z U t.G.G.7.X Z f.p.",
"t.=XM.|.&Xn f. XV.j.f.*.Z A w.8.B.eX4Xf.3 8.v v -X4Xu 9.u.+Xs.].D p.1XZ U t.M.N.C.%Xw.6.T c R Y P | | 9.D.j.U l | C.M.| &.r.4X-.",
"M.V.=XN.g.7 b r.#.].;Xg.z 1 Z i.w.B.%XU Z '.6.L Z B.B.B Q &.1X1X-.].j.#.&.k 6.P w.L T G.M.T 6.7.| L r.j.b b *.1 < 7.n | G.B.*Xp.",
"T c f.| r.*.B U *.j.1X].=.-.9.8.i.8.! , P '.%Xw.U f.|.g.} p.XX1X*.&.&.f.V.w.Y Y T 2 P Z.6.P | q.7.7.G. XA U XXr.Z w.c M.f.9.p.*X",
"c Z l 9.*X;X;XU r.p.4X5Xf.u.V.B.`.i.I 3 ! %X=X0.7.7.|.r.D g.6X6X#.&.z 9.&.w.T 7.4 k w.M.w.t.7.t.w.G.f.r.r.j.5XfX4X9.| w.C.b } ].",
"&.N.P wXgX XMXV.< *.MX*X=.&.=.B.B.M.P L P U w.0.&.n l f.j.a 5XXXa p., o L c 2 J k q.%X&XV.6.7.N.C.9.} f.XX].|.xX4X|.N.T P A V.1X",
"f.n U D.lXb ].:.p.-.V.} =.9.Z p &.w.8.V.C.M.M.q.7.|.f.g. X9.j.r V 9.1 1 -XN.k o q.M.%XG.M.&.Z A | c A *.r.1XfXD.t.7.| P &.9.D. X",
"G.u Z C.5Xz D -.j.j.j.-.p.&.I Q w.M.&.| w.t.t.6.7.N.f.D.g.r B j.[.1XV.].kXC.w.t.L.M.6.l U |.p.Z 9.C.U p #.j.-.&.U n n 7.7.#.#.g.",
"9.z z g. X-.r.k.d -.-.-.&.r M 9.C.C.n & k w.Z.b.| | n } *X1Xg.#.-.#.D wXbXC.N.=X%XL n &.B.V.#.#.N.9.f.f.-.#.#.D f.7.T t.7.&.A #.",
"Z D U r.D.$.5XoXj.}.p.].XX=.Q &.U | l < n t.N.&XP V.|.f.].kX4X#.H y a xX4X9.| t.T Y N.V.9.p.-.r.t.&.f.XX].p.p.j. X|.t.t.9.j.-.#.",
"&.D.p.1X-.A 6XoX~.#X[.xXuXj.Q Z Z T 0.t.G.N.7.=XC.N.N.f.C.XX*Xa.2.2.<.1X#.u Z 0.L %XqXM.&.|.1X#.z *.9.g.1X[.p.].V.r.9.C.f.&.:.XX",
"f.=Xj.kX#.} 2X].D ~.1XzXXXa.=.=.N.H.:XqXbX=X6.N.U t.t.7.-X`.].<.^.4.s.XX].9.%X%XC.M.M.qX;Xj.p.z 1 z f.].a.[.XX-.f.U 7.|.C.A #.1X",
"9.7.C.|.r.#.zXp.d #.p.j.U =.=.f.N.&X=XH.gXeX| L P M.9.8.kXj.j.R.3.h h C p.D *X=XG.J 3 %X=X&.f.&.8.XXV.Z a #.j.*X|.f.f.f.*XD.g.*.",
"w.R P 7.u p xX~.t #.p.p.j.B.9.w.t.z U g.f. X4Xh.6.G.wXB.|.j.{.cXG 3.H V M I C.7.N.M.c k & c h.h.u.uX1XZ r Z 9.D.G.A f.G.F.F.H.D.",
"L.b.w.7.A 1 [.}.~ p.[.1XC.U 6.N.t.U z 7 1 z 9.D.*XC.G.f.a ;./.@X!.@X3.}.H s &.| G.C.o.6.c L w.V.9.u.,XXX} &.f.A } 9.} H.O. .n.F.",
"6.C.N.w.p.-.j.j.-.j.V.f.D z f.V.B.5X5XD.9.D U B.f.%X9.9.=.2.,.3.!.@XT.cX~.Q h.7.N.b.6.G.%Xf.T I B S f.,X;X|.h.&.| fX X*.G.N.N.N.",
"$ 7.U #.#.kXj.#.s.a.-.B , < h.f.G.kXnX4XV.#.D r.8.qXh.9.+X( h ` ).9X@X9X{.<.9.7.G.Z.6.t.%XC.6.&.I 9.9.p.*XXXf.f. XMXgX- F.qXy.7.",
"$ z p Z M 6Xh.*.u.I &.U 1 > j.4X-X|.|.|.D.D.V.f.-X%XC..Xs.` Q.).!.@X).` 3.V 1 P M.&X%Xt.V.G.V.j.u.j.u.Q &.j.V.r.g.G.G.| t.4X| P ",
"D D p.j.j.u.s.+X`.&.f.Q z a ].1Xj.Z A g.XX1X`.M 7.&.! .XV 3.$X8XY.' ' G $Xp.r U w.G.=Xt.V.%XB.8.#.V.-.z D &.I A } % } &Xr.P H.g.",
"s.{.xX9X6XQ h.uX,Xu.XXQ D #.h.f.|.U D p..XXX`.&.9.|.9.h.=.$X^.8XdX] 5.!.vX7X9.C.|.w.t.U 9.G.C.9.D.4XXXD.*X].*.*.| o A A } i &X X",
"H 9XxX.X{.#.s.7XS r .XV.j.u.j.7XV.-.&.p.h.p.h.`.9.h.S > g /.Y._.8XT.5.!.^.R.*XkXG.| t.9.N.N.g.p.D 1 #.*XV.].XX9.A P G.} D.>XP b ",
"<.7X{.s.V V <..Xp X =.,Xh.u.`.u.r.B Z D -.j.p.V.].Q Z p.}.$X8XsXY.G !.@X,.p.V.|.f.n U Z N.-Xr.u #.#.B 9.-.#. Xj.r.fX|.D.V.D.} V.",
"s..Xj.H s <.{.j.#.1 u.j.#.-.V.#.D.*.} ~ #.-.a.`.|.p.XX+X}.$XsXsX).!.T.' %.%.-.#.t.- u Z N.fXwXr.-.XXD.*.b }  Xf.p.f.|.9.9.f.D. X",
"H =.j.g g zXxXj.2.;.1X1X<.Q |.*XD.V.f.p.*.#.p.p.j.j.1X{.9X).W.!._.sXT.j ,.V *.*.7.b P &.:XkX;X X|.XX*Xj.} } r.f.r.U p.].9.U D.} ",
"z & S a D 1X<.d.C {.xX9Xj.u.=XqXf.|.f.-.~ #.D.p.j.D j.].^.] !.[ ).8XT.G /.%.p.p.U r.&XC.|.XXj. X6Xg.g.r.A u z g.;XD.A 6X&.D D.A ",
"$ Z &.1 D +X^.4.( 3X#XD Z ].-X&.U  XD.r.j.XX5Xk.#. X~.2.~.` _._._.T.).T.aXcX1Xg.r.f.mXgX} j.1X XA #.XX*Xg.*.D V.j.D.*.lXV.XX9.z ",
"$ c k &.].y C 4.,.3X+X#.#.V.L $ m g.-.A r.[.k.:.*.D.oXQ.1.5.dXT.).] sXT.(.MXzX XD. XmXlX-.r.r.r.1X XXXD.j.g.p.6X5XXX5XXXXXnXj.].",
"R 0.%X:X1Xj 1 C pXpX}.%.B A 6 Y >X5X:.t -.~.a.oX$.:.p.%.^.$X!.' [ [ sX' h #X1X Xr.g.D.;X|.} - #.].} b r. XD.D.lXp.#.1X*X1X].b *.",
"b.k kX*X Xa., _ (./.#X~.#.U < | D. X$.i a.l.F g.g.t F %.(.aX(.!.G [ sX!.` +X].[.r.b A XX;X*.i 2X1Xr.A *.p.} } XXj.$.D.nX6XB r -.",
"U i wXB.} p.%.~.j r }.6Xj.9.Z &.D.p.r.n P e.< k.;X:.l.C }./.1.Q.j W.W._ 4.#XiX Xg.t A ;X Xp.#.oX X XD.f.} i t j %.( ~.3X}.:.r.r.",
"-.#.p.D - -.5X#.y C ~.#Xj.7.9.t.1Xj.f.*.< < m  XxX}.^.2.,.,.e j !.Y./ ] 5.l.:.;Xl.A 7 -.].XX:.D *.D.*X XD.j.%.y & d.oX#.t k.j.*.",
"*Xf.A u 1 f.-.~ ~.}.( B B U |.G.*XnXqXD.l < e.gXnX[.d.d.C C r 2.` _.$XaXl.2.7 a.iXd X r.fX].f.|.9.f.G.|.;XiX].y $.d.2.2.a XXp.9.",
"C.&.n c &.f.B *.}.zX].p.V.f.N.7.j.g.} g.A o A lXzXd.^./.2.C j d.,.cXvXpX) a.F 3XxXa.r -.V.9.8.-XC.U A 9.j.].%.1 2.^.}.3Xd -.f.-.",
"U t.w.M.7.&.4Xj.a.6X].( U U 0.%X1Xp.9.9.U N.gX Xp.a.3XpX$X}.,.;.` 2.Q.d.~.OXF $.[.6X5X].9.f.&.C.*X8.9.|.].a.D 1 g ~.j.}.*.D *.B ",
"t.*X:X7.c k V.|.V p.2.B &.p.6.&X6Xp.9.g.qXbX&Xi d }.3X$X^.vX9Xd.{.;.j t a.}.C < >.[.zXnX;X|.&.|.f.p.].[.a.*.( d #.j.B -.zXj.B r ",
"G.t.t.6 < 6 1 p.B ( y , D j.&.&.-.}.D.*.fXnXa.o ~ iXpX5.Y.vXaX(.~.{.~.D %.(.4.y ) ~.2X;Xg.V.8.I u.j.`.R.j.^.}.}.2.+X].-.1X[.A t ",
"t.x - k 6 &.g.#.2.Q.C 1 ( j.9.U ~.~.j.a.D.|.;X~ f (.pX5.8XdX8XE.y d.3X^._ 2.OX4.d.~.>.:.~ 9.B.U =.=.#.<.}.$X9XaXj.d.xXk.C $.b r ",
"| 6 x G.7.|. X2X}.pX%.t ( p.].5XvXd.B j.g.r.a.l.^ ` 1.W._.dXW.aXy y 2.3X2._ /.OX1.j t ~.].F r.j.2.}.%.d.3X3XaX+XQ.2.aXk., l.#.t ",
"y.H.>X&X7.5XnXiXoX) ) ~.a.-.4XnX].2.p.oXf.$.$.~.OX_ ] W./ G $XvXy & ~.( oXOX4.1.2.) f d k.1Xj.p.{.Q.#XaX#XQ.d.C ~ d.k.l.% B :.r.",
"P O.n.H. . .:X2Xd.%.%.) d %.5XD.r.k. X XH.5XD.l.iXpX$X_ ` j 1.cX+X( j.>.k.l.t k.k.oXa.~.oXl.XX~.( d.3X2X}.k.>.a.a.2Xa.k.i - -.-.",
": 8 8 m 8 ; y.g.>.l.l.}.2XoX|.t.*.A m l O.:Xe.e.hXNXvX) 4.Q.C BXMX6X$.D.>.} A fX>XJ.iXVX5X$.%.y y j.3X[.[.D.-.r.} y.g.y. X7 e.{ ",
"K : + @ :   K O.} J.[.2XnX X{ P O.; O : 8 K 8 H.mX5X2Xl.F a.$.xXzXiXg.e.H. .>XO. .l mXmXJ.oXa.d.6X5X1X Xg.|.:Xr.< l F.n.jXS.n.y.",
"q + . @ : . : 8 l J.>Xg.e.7.P ; =   X : @ X   K H.@.m J.A D.D.A g.>.g.{ y.K m.O . X S.H.g. Xg.2XnX|.n b P O.b.O.; = ..+.L.P.K K ",
"# 0 0 # 9 0 K 9 = 8 {  .{ { ..8 8 0 W X.q q 0 8 @ 8 + m A t.| o A l A e.+.W X.0 W 8 O = 8 m g.J.| n < ; n 8 = 9 8 O = 8 0 z.0 : ",
"x.K.U.x.x.K.K.L.n.S.@.@.n.P.jX0X0XrXrXrXU.I.rXU.P.P.S.F.y.e...P H.H.y.jXjXK.I.U.I.K.K.F.e.H.iXJ.{ n Z.b.+.n.+.m.K.z.X.z.X.X.K.c."
};
