/* XPM */
static char *_ae7a813b16040eebec10691b6942a65TyuWoPWbvQu3iIjf[] = {
/* columns rows colors chars-per-pixel */
"64 64 120 2 ",
"   c #494949",
".  c gray29",
"X  c #4B4B4B",
"o  c #4C4C4C",
"O  c gray30",
"+  c #4E4E4E",
"@  c gray31",
"#  c #505050",
"$  c #515151",
"%  c gray32",
"&  c #535353",
"*  c gray33",
"=  c #555555",
"-  c #565656",
";  c gray34",
":  c #585858",
">  c gray35",
",  c #5A5A5A",
"<  c #5B5B5B",
"1  c gray36",
"2  c #5D5D5D",
"3  c gray37",
"4  c #5F5F5F",
"5  c #606060",
"6  c gray38",
"7  c #626262",
"8  c gray39",
"9  c #646464",
"0  c #656565",
"q  c gray40",
"w  c #676767",
"e  c #686868",
"r  c DimGray",
"t  c #6A6A6A",
"y  c gray42",
"u  c #6C6C6C",
"i  c #6D6D6D",
"p  c gray43",
"a  c #6F6F6F",
"s  c gray44",
"d  c #717171",
"f  c #727272",
"g  c gray45",
"h  c #747474",
"j  c gray46",
"k  c #767676",
"l  c #777777",
"z  c gray47",
"x  c #797979",
"c  c gray48",
"v  c #7B7B7B",
"b  c #7C7C7C",
"n  c gray49",
"m  c #7E7E7E",
"M  c gray50",
"N  c #808080",
"B  c #818181",
"V  c gray51",
"C  c #838383",
"Z  c #848484",
"A  c gray52",
"S  c #868686",
"D  c gray53",
"F  c #888888",
"G  c #898989",
"H  c gray54",
"J  c #8B8B8B",
"K  c gray55",
"L  c #8D8D8D",
"P  c #8E8E8E",
"I  c gray56",
"U  c #909090",
"Y  c gray57",
"T  c #929292",
"R  c #939393",
"E  c gray58",
"W  c #959595",
"Q  c gray59",
"!  c #979797",
"~  c #989898",
"^  c gray60",
"/  c #9A9A9A",
"(  c #9B9B9B",
")  c gray61",
"_  c #9D9D9D",
"`  c gray62",
"'  c #9F9F9F",
"]  c #A0A0A0",
"[  c gray63",
"{  c #A2A2A2",
"}  c gray64",
"|  c #A4A4A4",
" . c #A5A5A5",
".. c gray65",
"X. c #A7A7A7",
"o. c gray66",
"O. c #A9A9A9",
"+. c #AAAAAA",
"@. c gray67",
"#. c #ACACAC",
"$. c gray68",
"%. c #AEAEAE",
"&. c #AFAFAF",
"*. c gray69",
"=. c #B1B1B1",
"-. c #B2B2B2",
";. c gray70",
":. c #B4B4B4",
">. c #B6B6B6",
",. c #B7B7B7",
"<. c gray72",
"1. c #B9B9B9",
"2. c gray73",
"3. c #BBBBBB",
"4. c #BCBCBC",
"5. c gray74",
"6. c gray",
"7. c gray75",
"8. c #C3C3C3",
"9. c gray77",
/* pixels */
"B b b b e 8 w w w w 8 8 O.:.=.=.O.O.O.| A b b B f e u k { O.%.| { { | { B b b b w 8 8 8 - $ $ $ - : : : u u u f | | | | %.=.%.=.",
"b c c b w 8 w w 4 w 8 w | %.=.=.O.O.O.| A c b B f f u k | O.O.O.{ { | { B b b b w w 8 w - $ $ $ : 4 4 4 u u u f { | | | %.=.=.=.",
"b c c b w 8 w w 8 8 8 w | =.=.=.%.O.%.| A b b B f k u k | %.O.O.{ { | { A b b b 8 8 8 8 $ $ $ - - : : : u e u f { | | | %.=.=.=.",
"B b b b w 8 w w w w w u { %.%.O.O.| | { A b b B k f u c ` %.| | ` { | ` B b b b e w w e - $ $ - : 4 : : k f f f | | | | O.%.%.%.",
"A A A A e 8 8 w ` | | ` =.%.%.=.K F F F u w w e { O.O.| K A F K %.%.=.%.T K K K K F F A e 8 8 8 8 8 8 e ! ` ` ` B B b B B B B B ",
"F F F A e 8 8 w | O.%.| %.O.O.O.F A A A e w w e | | O.| A A A F %.%.=.%.T K K K T K T F e 8 8 8 w 8 8 e ` { { { B B b b b b b c ",
"F F F A e 8 8 w | O.O.| =.%.%.O.F A A A u w e e | O.O.O.A A A F %.%.=.%.T K K K K F K F e 4 8 w 8 8 8 w ` { { { A B B B b B B c ",
"F A F A e 8 8 w ` | O.| O.O.O.O.F A F A u w w w { %.O.| F F B K %.%.=.%.T K K K K F T K w 4 8 w 8 w w w ` ` { { A b B B b B B b ",
"w e w w / / ! / B b B c B B A A B B B b : $ $ - { O.%.O.T T T T A B B A B B B B A A A A 4 : $ - w w 8 8 w e w e T ! ! ! B b B A ",
"8 8 8 w / { ` { b c c k b b B b b b b c - $ $ - { O.O.| T T T T B b B B b b B b A A A A 4 - $ - w e w w 4 8 8 w ! / / ! A B B A ",
"8 8 4 e / | { { B c c c b b B b B B b b : $ @ - | %.%.O.! T T T b b b B b b B b B A A B 4 - $ : w 8 4 8 : 8 4 4 T ! ! ! B B B A ",
"8 8 8 u T ` ` ` b c b b b b B B b b b c : $ $ - { | | { ! ! T T A B A B b b B b A B B b 8 : - : w w w e : w 8 8 ! ! ! ! A B A A ",
"8 8 8 4 u u u u / / / ! B c b b f f f k - - - : b A A A b A B B K F K F B b B b 4 4 4 8 : : : 4 ! ` ` ! e 8 8 w e e e e : : : : ",
"4 8 4 4 8 4 8 8 ! / ` / b c b B f f u k - - - : k b b B b A B B T T T K A b B b : - - : - - - : { | O.{ e 8 8 w 4 4 4 4 $ $ @ $ ",
"8 8 8 8 4 8 8 8 / ` { ` B b b b k f f k : - - : c B b B B A b B K K T K B b b b : - - - : - : : { { { { e 8 8 8 8 8 8 8 - - $ - ",
"w 8 w w w e e e ! ! / / c c c k u u u f - - - : c B b b B A B B F K K F b c b b 4 : : : : - : 4 ` { | | w 8 8 w 8 8 8 8 - - $ $ ",
"! ! T ! | | { { w 4 4 : 4 4 : 4 : : : - - - - - 8 f w e b B b c 4 4 - - : - $ 8 ` | { { ! / ! ! B B A A b b b b w 8 w 8 u u u u ",
"/ / ! / O.%.O.| 4 $ : - - - - - - - - - - - - - 8 u w u b B B b $ @ X @ $ - - : | %.O.| / ` / ! B b b B b b B b w 4 8 8 u u f u ",
"/ ! ! / | %.O.O.8 $ : - - $ : $ - - - - - - - - w e w u b B B b $ $ $ $ $ @ - 4 | O.O.O.` ` ` ` A b b B b B B c w 8 8 w u u f u ",
"/ ` ` { { | | | 8 - : $ 4 4 4 : : : : 4 4 8 4 4 w w w u c b b b $ $ - $ 8 4 8 w | O.O.O./ / / / A B B B b b B b w 8 w e e u u u ",
"%.%.%.| F B b b k u k k { O.O.O.` ` ` ` { | | | e w w 8 4 : : - e w w u %.5.2.2.` ` ` ` A B b b F F K F B b B b A A A B u e e e ",
"=.=.=.O.B c c b f f f u | =.O.O.| | { | %.%.%.%.e 8 w 8 : - - - w e 8 e 2.8.5.5.{ ` { ` A b b b K K T K B b B B A A F B e w e e ",
"%.%.%.O.b c c c k f k f O.=.%.O.{ { { | O.%.%.O.u 4 w 8 - - - - e u u u 2.5.5.2.` / ` ` A b b B K K T K B b B B F F F A e w e e ",
"%.%.=.%.b b b b k u k f | =.=.O.{ { ` { O.%.%.%.u 4 w w - - : : w w e e :.5.8.:.` / ` ` B c c b K F K F B B B b A A A A e e e e ",
"b b b B A F F F w 4 : 8 ! { ` / F A A A B B b b c c k k 8 8 8 8 8 4 8 8 u f f f B B B A F K F K K F F A T K T K w 8 8 8 : : : - ",
"k f f c B F F A 8 8 4 4 / / ` ` A A B B b c c c B b B B 8 8 8 8 w w 8 8 8 8 4 : b b b B F F F K F A F F T T T K 8 4 4 4 : : 4 : ",
"c k k c B F A B 8 4 : : ` ` / / A B B b b c k k b b B B 8 4 w 8 4 4 8 8 8 w w w b b b B F K K T F A A F T T T K 8 8 4 4 : : : - ",
"k k k c B F F A 8 4 4 8 ! / / ! B b b b c c k k b c c k e 8 8 8 w w e e 8 8 w w c b b b A F F K F A F F K K T K 8 8 4 4 4 4 4 : ",
"c c c c c k k k k k k f 8 4 : : - $ $ $ $ $ $ @ - 4 : 8 b F A K { { ` / A B b b 8 8 8 8 e e e u k k k f 4 : : : 4 4 4 4 8 w w w ",
"k k c k k k k k u f k k $ - - - @ @ @ @ @ @ @ @ - : $ : A K A F O.O.| | A B B B 4 4 : 4 8 8 4 8 f f f u - $ $ - 4 4 : 4 w e w e ",
"b b b c c k k k f f f k : : : $ @ @ @ @ @ @ @ @ $ - $ : A K A F | | | { B B b B 4 8 4 4 8 8 8 8 f f f u $ $ $ $ 4 4 4 4 w e w w ",
"c c c c b b b b k c b c 8 4 4 4 $ $ $ $ @ @ @ @ : 4 4 8 A F F K | O.O.O.A A A F 8 w 8 8 w w 8 w k k k k : : : : : 4 : : w e w w ",
"w 8 8 w | | | | O.| | | | | | { A A B b 4 4 4 8 { | | %.T ! T T | O.O.O.O.| | | K K K K f e u u T / / / A F F A e w 8 8 8 8 w 8 ",
"w 8 8 w | O.O.O.O.O.O.O.%.O.%.%.F B b b 8 4 : 4 | %.%.%.! / ! / O.O.O.O.O.O.| | T T T T f e e u T / ` / F K K F e w 8 8 8 8 8 4 ",
"8 8 4 w { %.O.| | | | | | | O.O.A b c b 8 8 4 8 { O.O.%.! ! ! / O.O.O.O.O.O.O.| T T T K f e e u / ` { ` K K K K e w w 8 8 8 8 4 ",
"8 4 8 e ` | O.| O.O.O.O.O.| O.O.A B B B 4 4 4 4 | O.O.| ! ! T ! O.O.O.O.%.O.O.O.K F F A k e e u T ! ! ! K K K K u e e e w w w w ",
"8 8 4 4 B B B B K K K F A A A A K F F A : $ $ $ e u u f f c c b O.O.O.O.O.O.O.O.k f f c c b B B 4 : : 4 w e e e { { { { { { { | ",
"4 8 8 8 b b b B F F F A B b b b K K K F - @ @ $ w w w w u f f f | | O.O.O.O.O.| f e e f b b B b $ X X @ 4 8 8 8 { | O.O.O.O.O.O.",
"8 8 8 8 c b b b A F F A B b b B F A K F : @ $ $ w e w e f f k c | | | O.O.O.| | f e e u b b B b - @ X @ 8 4 8 8 { O.O.O.O.O.| O.",
"w 8 8 w c B b b B A F A B b b B K A K F : $ $ @ 8 w w w u u f c { | | | | | | | f u u f b c b b - $ $ $ w 8 w e { O.O.O.O.| | O.",
"- - - - 4 8 4 8 A F F A B b b B 4 - - : 8 w w 4 w 8 8 w e u u e w 8 8 w b A A B b c b B - - - - 8 4 4 e ` O.{ { O.| %.O.F A F A ",
"$ $ $ $ : 4 : 4 F F F F B b b b $ @ $ $ 4 8 w 8 w 8 8 8 e u e w : : - : c b c c B b b b - @ @ $ 8 8 8 e | O.O.O.%.O.O.| A B B b ",
"@ $ @ $ : : : : A F F A B b b b $ @ $ $ 8 8 8 8 8 4 4 8 w u e w : 4 : 4 b A B A B B B b - @ @ $ 4 4 8 w | O.O.O.O.| O.| F A A B ",
"$ - $ - 4 4 : 4 A A A A B b b b - $ $ @ w w 8 4 w w w e w e u e : 4 4 8 k c c b B B b c : $ @ $ w 8 8 u ` O.| { O.| | { A B B b ",
"- - - - 4 8 4 8 4 4 4 4 4 4 4 4 8 4 8 w ! / ` / O.O.| ` A b b b f u u u 4 : : - w w w e 4 4 4 8 { O.O.| K F F K T T ! ! B B B B ",
"- - - - 4 8 4 8 - - - : : : : 4 8 4 4 w ` | | { %.=.%.O.A B b B k f k f $ @ - $ 8 4 4 8 w 8 8 w %.%.%.=.A A B B T T T T b b b b ",
"- - - - 4 8 8 8 $ - - - : : : : w 8 8 w { | | { %.=.%.O.A B B A f f k f $ @ $ $ 4 8 4 8 e w 8 e O.%.%.%.A A B B K T T T B B B B ",
"- : : : 8 8 8 w : : : 4 4 4 4 4 8 8 8 8 ` ` ` ` %.=.%.O.A A B B k c c f - $ $ - 4 8 8 8 w 8 4 w %.=.=.%.K A A F T T T K b c c c ",
"8 8 8 w / ` / ` ! T ! ! T T ! T 8 : : 4 b c b b { { { { T T T T | { | | { { { { e 8 w 4 8 4 w e | O.O.O.A A b B F A A A 4 4 4 4 ",
"w w 8 e / { ` ` / ! / / ! ! / ! 4 $ - : c b B b { { { { K K K K %.O.O.%.O.O.%.O.e w w 8 w 4 8 w { %.O.O.F A B F A B B B : : : : ",
"8 8 4 w ! ` ` / / ! / / ! ! ! ! 8 - - 4 b b B b { | | { T K T T %.O.O.O.O.O.O.| w 4 4 4 8 8 w w { O.O.| F B B A A A B B 4 : : : ",
"w w w u T ` ` ` ` ! / / ! ! ! ! 8 - : 8 k c b b ` ` ` / K K F F O.| | O.O.O.O.| e w w w 8 4 w w { | | { F A B B A A B B 4 : : : ",
"` { ` / O.| { { T K T T F F K F u w w 8 w 8 w 8 - - : 4 w e u e k k k c B A A A b c c k w 4 8 w c b b A A F F F B b b b : - - - ",
"| | | | | | | | ! T T K F F F A e w w w 8 4 8 8 $ @ @ $ 8 w w w f f f k b B B B B b B b w 4 8 w c c c b A F A A B b b b : - - - ",
"` { { { { { | | T K K K A A A B u e e e 8 8 8 w $ $ $ $ w e e e k c k c B A A A c c c b 8 4 8 w c c c c A F A A B B B b : : : - ",
"{ { { | { | | | ! T T K F F F A u w 8 w 8 8 8 8 $ $ $ $ w w w w f f u f B A B B b c c b w 8 8 8 k c c b F F F F b b b c - - - $ ",
"f u u u T K K K { ` ` ` B B B B f k f f b b b b b b c c 8 4 : 4 8 8 w 8 8 4 8 8 c b b b w 8 8 8 u u u e 4 : 4 : : : - 4 8 w 8 w ",
"8 w e w F F F K | { | ` B b B b k k f k b B b b B b b b 8 4 4 4 4 4 8 4 4 4 4 4 c b B b e 8 8 w e e u e : - - : - - $ : 8 w 8 w ",
"w e 8 w K K F F { { | ` A b b B f f f k b B b b B c B b 4 : 4 : 4 4 4 4 4 4 4 4 b B B b e 8 4 8 w e u w : $ - : : - $ : w w 8 w ",
"w w w u A F F F ` { ` ! F B B B f k k c c b b b c b B c w : 4 8 4 4 4 4 4 4 4 4 b b b k e w 8 8 f f u e 4 : : : : - $ - w w w w ",
"B B A b 8 : 4 4 k c c c B A A A B B b c 4 : - - e w 8 u / | { ` b b b b b b b b $ $ - : 8 e e e ` ` ` ` { { | | e 8 8 w b b b b ",
"B B F B - @ - - k k k k A A A A B B B b : - - - w e w e { | { | B b b b b b b b $ $ @ $ w e u e | | { { O.%.O.O.u 8 8 w b b B B ",
"F F A A : - - $ k k k f F A A F b b B b - - - : w w w w { { { { B B b b B B B b - $ @ $ w e e w | | { { O.%.O.O.f w 8 8 B b B b ",
"A F A A : - - : k b c k F A B F B b B B - - : - e w e e { { | { B b b b B B b b - $ $ $ w e e e { | { { O.O.| O.e 4 4 4 B B A B "
};
